<?xml version="1.0" encoding="UTF-8"?>
<svg version="1.1" xmlns="http://www.w3.org/2000/svg" width="2048" height="2048">
<path d="M0 0 C675.84 0 1351.68 0 2048 0 C2048 675.84 2048 1351.68 2048 2048 C1372.16 2048 696.32 2048 0 2048 C0 1372.16 0 696.32 0 0 Z " fill="#FEFEFE" transform="translate(0,0)"/>
<path d="M0 0 C0 29.7 0 59.4 0 90 C-25.08 90 -50.16 90 -76 90 C-76 113.43 -76 136.86 -76 161 C-82.084375 162.19625 -88.16875 163.3925 -94.4375 164.625 C-119.33978005 169.58776773 -143.75499676 175.38613338 -168 183 C-168.63484314 183.19916016 -169.26968628 183.39832031 -169.92376709 183.60351562 C-201.7776632 193.62323475 -232.14578025 206.05489636 -262 221 C-263.10972168 221.55478027 -264.21944336 222.10956055 -265.36279297 222.68115234 C-266.23307129 223.11637207 -267.10334961 223.5515918 -268 224 C-268.1792609 252.48317881 -268.04349303 280.88618964 -265.24853516 309.25878906 C-264.99981885 312.00199804 -264.80895615 314.7431816 -264.63671875 317.4921875 C-261.39963676 367.61778212 -251.58325915 417.99873163 -235.75683594 465.65234375 C-234.13458496 470.68446163 -232.74479159 475.78763342 -231.3359375 480.8828125 C-229.98313713 485.35224811 -228.13122669 489.60019068 -226.30712891 493.89404297 C-225.08465958 496.79883467 -223.92062157 499.71803225 -222.78125 502.65625 C-210.6836937 533.74039607 -196.35409554 564.08559252 -178 592 C-177.54979492 592.69432129 -177.09958984 593.38864258 -176.63574219 594.10400391 C-164.85042578 612.27471621 -151.96951992 629.45638635 -138 646 C-136.99346842 647.20310729 -135.98695721 648.40623163 -134.98046875 649.609375 C-122.36122962 664.599323 -108.9379544 679.52705112 -94.015625 692.265625 C-91.69885379 694.25912581 -89.44580016 696.31554388 -87.1875 698.375 C-81.93813969 703.10580648 -76.50311234 707.56910697 -71 712 C-69.85508027 712.93702553 -68.71056742 713.87454838 -67.56640625 714.8125 C-58.34731616 722.33063269 -48.81601178 729.28389054 -39 736 C-38.20883789 736.54382324 -37.41767578 737.08764648 -36.60253906 737.64794922 C-14.89908645 752.5159728 7.68933 765.81810228 31 778 C32.52415527 778.80002441 32.52415527 778.80002441 34.07910156 779.61621094 C53.23289869 789.61027932 72.94874694 798.0032446 93 806 C90.34975495 809.06888995 87.21052461 810.66281606 83.65625 812.5546875 C83.02381882 812.89250244 82.39138763 813.23031738 81.73979187 813.57836914 C79.6633921 814.68405773 77.58224699 815.78036656 75.5 816.875 C74.42656845 817.44157318 74.42656845 817.44157318 73.33145142 818.01959229 C54.6685493 827.86086718 35.81501167 837.17442032 16.3125 845.25 C15.19576904 845.71647949 14.07903809 846.18295898 12.9284668 846.66357422 C11.34932495 847.30190186 11.34932495 847.30190186 9.73828125 847.953125 C8.82087158 848.32598633 7.90346191 848.69884766 6.95825195 849.08300781 C-0.08293571 851.26561909 -4.29214764 851.44678599 -11.04296875 848.38671875 C-11.68495712 848.10181076 -12.3269455 847.81690277 -12.98838806 847.52336121 C-15.0636666 846.59654279 -17.12529849 845.64301754 -19.1875 844.6875 C-20.63008793 844.03462344 -22.07329078 843.38310398 -23.51708984 842.73291016 C-27.05735102 841.13225221 -30.58630346 839.50837855 -34.11114502 837.87408447 C-36.73487922 836.65992809 -39.36625563 835.46258521 -41.99609375 834.26171875 C-54.64514819 828.41800354 -66.85053317 821.81175345 -79 815 C-79.90314941 814.49678223 -80.80629883 813.99356445 -81.73681641 813.47509766 C-93.79016563 806.7485023 -105.54149065 799.69710083 -117 792 C-117.75490723 791.49355957 -118.50981445 790.98711914 -119.28759766 790.46533203 C-148.66819241 770.68958056 -148.66819241 770.68958056 -162.16796875 759.3671875 C-164.36129929 757.53386569 -166.56967234 755.7317387 -168.80078125 753.9453125 C-176.22536928 747.99325302 -183.43512092 741.92071817 -190.390625 735.42578125 C-192.63873023 733.33585109 -194.92150911 731.31157261 -197.25 729.3125 C-200.73949335 726.2945598 -203.96277205 723.05867261 -207.1953125 719.76953125 C-209.0547614 717.87987987 -209.0547614 717.87987987 -211.5625 716 C-214.39922446 713.67243121 -216.60376992 711.05919778 -218.98046875 708.2734375 C-221.22734166 705.74407573 -223.59144327 703.37566293 -226 701 C-229.57083512 697.46686601 -232.96551225 693.86626905 -236.23046875 690.05078125 C-238.23786023 687.72433417 -240.30466638 685.45807314 -242.375 683.1875 C-251.0711455 673.53654123 -259.05172689 663.26921193 -267 653 C-267.70962891 652.08589355 -267.70962891 652.08589355 -268.43359375 651.15332031 C-303.96939131 605.19272577 -330.1394905 553.40529876 -350 499 C-350.32226562 498.12037598 -350.64453125 497.24075195 -350.9765625 496.33447266 C-354.35695009 487.06695734 -357.46691324 477.71988306 -360.31396484 468.27490234 C-360.79008475 466.69608196 -361.26983461 465.1183535 -361.75244141 463.54150391 C-373.45133162 425.21064464 -382.45645118 386.01673094 -387.5 346.25 C-387.93158138 342.88515587 -388.36574524 339.52064908 -388.80078125 336.15625 C-388.90518021 335.34669861 -389.00957916 334.53714722 -389.11714172 333.70306396 C-389.78998796 328.51802687 -390.52520383 323.34612762 -391.31665039 318.17773438 C-393.25245448 305.50516301 -394.17196895 292.78697137 -395 280 C-395.04253906 279.34676758 -395.08507812 278.69353516 -395.12890625 278.02050781 C-395.80061099 267.68316936 -396.44060372 257.34406202 -397 247 C-397.04483521 246.19868652 -397.08967041 245.39737305 -397.13586426 244.57177734 C-397.98155701 229.20970598 -398.16091617 213.88319171 -398.125 198.5 C-398.1234491 197.31412292 -398.12189819 196.12824585 -398.12030029 194.90643311 C-398.0927595 176.9186609 -397.92928573 158.96701243 -397 141 C-396.9660614 140.32346375 -396.9321228 139.64692749 -396.89715576 138.94989014 C-396.67544695 134.53677552 -396.43957345 130.12471808 -396.18597412 125.71331787 C-396.10497248 124.30233583 -396.02584743 122.89124453 -395.9487915 121.4800415 C-395.84019699 119.52917432 -395.71914969 117.57901262 -395.59765625 115.62890625 C-395.53070557 114.51588135 -395.46375488 113.40285645 -395.39477539 112.25610352 C-394.2802387 103.06341594 -394.2802387 103.06341594 -390.5234375 99.94287109 C-389.48445312 99.39195801 -388.44546875 98.84104492 -387.375 98.2734375 C-386.80514374 97.96356903 -386.23528748 97.65370056 -385.64816284 97.33444214 C-383.7768017 96.32480375 -381.88976226 95.34969887 -380 94.375 C-378.68032281 93.67441191 -377.36148479 92.97224097 -376.04345703 92.26855469 C-372.68371486 90.48424161 -369.3087606 88.73136533 -365.92590332 86.99133301 C-364.12106834 86.06231831 -362.31968227 85.12661185 -360.51855469 84.19042969 C-323.22875705 64.8619772 -284.1913544 49.16491952 -244 37 C-242.23941561 36.45757535 -240.47898909 35.9146379 -238.71875 35.37109375 C-233.82471567 33.87118509 -228.91670375 32.42368589 -224 31 C-222.97680664 30.70319336 -221.95361328 30.40638672 -220.89941406 30.10058594 C-217.58097991 29.14249494 -214.25983152 28.19448125 -210.9375 27.25 C-209.91438721 26.95593262 -208.89127441 26.66186523 -207.8371582 26.35888672 C-202.0798572 24.7391329 -196.36687347 23.45154334 -190.47241211 22.44287109 C-187.20439583 21.85748731 -184.02046487 21.03933248 -180.8125 20.1875 C-158.45574456 14.47743826 -135.73941349 10.8417766 -112.96026611 7.30596924 C-110.34596607 6.89791475 -107.73371028 6.47727322 -105.12109375 6.05859375 C-70.2579076 0.61971916 -35.24994842 0 0 0 Z " fill="#051F34" transform="translate(1026,378)"/>
<path d="M0 0 C0.28401106 32.30953568 -0.75646388 63.58879343 -5.1436615 95.64930725 C-5.86184546 100.91701609 -6.53445886 106.189665 -7.1953125 111.46484375 C-10.41662608 137.04691051 -14.71325543 162.14449084 -20.6640625 187.25 C-21.72170623 191.73591827 -22.65551476 196.21958505 -23.5 200.75 C-29.50316171 231.17280258 -40.61331868 261.22561728 -52 290 C-52.54309814 291.37913574 -52.54309814 291.37913574 -53.09716797 292.78613281 C-63.3958889 318.72865132 -75.18500775 344.26836093 -89.41650391 368.29370117 C-90.90096093 370.83073572 -92.34219474 373.38933241 -93.7784729 375.95384216 C-98.36825351 384.11339738 -103.40370387 391.92041079 -108.625 399.6875 C-109.05964569 400.33686523 -109.49429138 400.98623047 -109.94210815 401.65527344 C-117.32002995 412.67063128 -124.93258255 423.47581682 -133 434 C-133.48227051 434.63244629 -133.96454102 435.26489258 -134.46142578 435.91650391 C-143.63428996 447.90789886 -153.40963517 459.36725007 -163.72827148 470.38696289 C-166.31230506 473.14864024 -168.82902039 475.95006456 -171.296875 478.81640625 C-175.31540931 483.42972977 -179.60184884 487.7488015 -183.9375 492.0625 C-184.69740234 492.82626953 -185.45730469 493.59003906 -186.24023438 494.37695312 C-190.41835268 498.54793545 -194.6832363 502.54708671 -199.1574707 506.39819336 C-201.36497238 508.31728949 -203.48907344 510.31284372 -205.61352539 512.32275391 C-211.67827321 518.04953726 -218.00744389 523.27304461 -224.61328125 528.359375 C-227.73989732 530.77327413 -230.74771223 533.30752632 -233.75 535.875 C-247.93589319 547.75591979 -263.52514085 557.89964283 -279 568 C-279.69657715 568.45906738 -280.3931543 568.91813477 -281.11083984 569.39111328 C-282.89911666 570.56567265 -284.69652827 571.72395522 -286.5 572.875 C-287.4590625 573.49117187 -288.418125 574.10734375 -289.40625 574.7421875 C-293.71555308 576.8319399 -296.05727616 576.31492965 -300.56640625 574.80859375 C-302.04827459 574.21563872 -303.52574416 573.61163646 -305 573 C-305.88284668 572.64180176 -306.76569336 572.28360352 -307.67529297 571.91455078 C-337.34391912 559.7816782 -367.03895415 546.16089483 -394.23876953 529.10351562 C-396.13079777 527.91804742 -398.03162408 526.74756993 -399.93359375 525.578125 C-413.98616201 516.90631135 -427.66028494 507.73211916 -441 498 C-441.98355469 497.28328125 -442.96710938 496.5665625 -443.98046875 495.828125 C-471.38585396 475.56071462 -499.74048334 452.46503239 -520.8984375 425.6015625 C-523.13800634 422.82915944 -525.50947705 420.23343332 -527.9375 417.625 C-532.86677462 412.25520468 -537.31508619 406.58643842 -541.67724609 400.75537109 C-543.02552747 398.96612357 -544.39514465 397.1950351 -545.76953125 395.42578125 C-559.72481674 377.33472106 -571.68987084 357.82723288 -583 338 C-583.56509277 337.01290039 -583.56509277 337.01290039 -584.14160156 336.00585938 C-592.89288042 320.57619293 -600.12327966 304.13836763 -606.86645508 287.74829102 C-608.05594912 284.8643508 -609.27567068 281.99430106 -610.5 279.125 C-612.8094048 273.59401171 -614.82747023 267.98270367 -616.80078125 262.32421875 C-617.85815193 259.393201 -619.02099835 256.54925475 -620.25 253.6875 C-622.13462986 249.10511368 -622.68174079 244.93301775 -623 240 C-615.43028722 234.8627142 -607.30558702 231.4617066 -598.87890625 228.02734375 C-595.45338043 226.62551747 -592.07870584 225.14153425 -588.71484375 223.59765625 C-581.4398215 220.26165261 -574.05271309 217.19814386 -566.671875 214.10546875 C-557.21352537 210.12713448 -547.88751782 205.91270512 -538.625 201.5 C-531.87160066 198.32081354 -525.00108606 195.59108822 -518 193 C-510.92191658 190.34571872 -503.96913615 187.57853493 -497.109375 184.40234375 C-493.10102378 182.59455721 -489.05807566 180.88021435 -485 179.1875 C-484.25717773 178.87312988 -483.51435547 178.55875977 -482.74902344 178.23486328 C-479.68935796 176.96809144 -477.34503811 176 -474 176 C-474 236.39 -474 296.78 -474 359 C-449.91 359 -425.82 359 -401 359 C-401 351.41 -401 343.82 -401 336 C-397.92231363 328.64357892 -394.79485793 324.97435087 -388 321 C-384.71480525 319.90493508 -382.26336585 319.90039392 -378.8125 319.9375 C-377.72582031 319.94652344 -376.63914062 319.95554687 -375.51953125 319.96484375 C-374.68808594 319.97644531 -373.85664062 319.98804688 -373 320 C-373.01047363 319.03288086 -373.02094727 318.06576172 -373.03173828 317.06933594 C-373.06839541 313.42386694 -373.09106377 309.77841364 -373.10986328 306.1328125 C-373.11981813 304.56572719 -373.1333869 302.99865993 -373.15087891 301.43164062 C-373.39432339 279.03474843 -369.1321737 259.22031638 -353.421875 242.26171875 C-338.42603413 228.25753832 -320.73266871 221.07630193 -300.15234375 221.7109375 C-280.74061819 222.7742265 -264.22546993 232.10607293 -251.09765625 246.015625 C-247.30545628 250.52154968 -244.46962268 255.48954166 -241.75 260.6875 C-241.2557251 261.60317749 -241.2557251 261.60317749 -240.75146484 262.53735352 C-234.36269884 275.33285902 -234.60339797 288.95853636 -234.8125 302.875 C-234.82758936 304.64191555 -234.84127017 306.40884371 -234.85351562 308.17578125 C-234.88614946 312.45083963 -234.93769089 316.72527541 -235 321 C-233.97084473 320.970271 -232.94168945 320.94054199 -231.88134766 320.90991211 C-230.51726456 320.88586765 -229.15316853 320.86254984 -227.7890625 320.83984375 C-227.11238525 320.8183728 -226.43570801 320.79690186 -225.73852539 320.77478027 C-220.46256591 320.7089512 -217.427244 321.6667452 -213.58203125 325.21875 C-203.88736372 336.13422752 -206 342.28200017 -206 359 C-171.35 359 -136.7 359 -101 359 C-101 250.43 -101 141.86 -101 30 C-94.07 28.02 -87.14 26.04 -80 24 C-74.77841173 22.32334322 -69.64620131 20.63915717 -64.5390625 18.65625 C-58.51394113 16.38791084 -52.34033686 14.57333671 -46.1875 12.6875 C-43.59344086 11.88902275 -40.99984685 11.08903985 -38.40625 10.2890625 C-37.7688237 10.09270706 -37.1313974 9.89635162 -36.47465515 9.69404602 C-30.29860515 7.78932202 -24.1377138 5.83745528 -17.98706055 3.85229492 C-5.92640319 0 -5.92640319 0 0 0 Z " fill="#B3B4B4" transform="translate(1424,601)"/>
<path d="M0 0 C29.10504237 0 29.10504237 0 43.1875 0.875 C44.73965814 0.96698932 46.29182297 1.05886561 47.84399414 1.15063477 C64.7471299 2.16939124 81.50354029 3.63381821 98.25390625 6.15234375 C102.50674236 6.79000567 106.7642458 7.37640351 111.02734375 7.94140625 C124.48161719 9.72798346 137.82227739 11.71150946 151.12158203 14.42285156 C154.36718351 15.07362356 157.61851066 15.68978017 160.87109375 16.3046875 C179.13852571 19.79757578 197.06580736 24.08830647 215 29 C216.05880371 29.28987793 217.11760742 29.57975586 218.20849609 29.87841797 C239.96428429 35.90001519 261.67741572 42.85262865 282.69677734 51.09960938 C285.56021242 52.21900184 288.43086926 53.31919581 291.30078125 54.421875 C379.4787731 88.4787731 379.4787731 88.4787731 395 104 C395.48657227 106.93896484 395.48657227 106.93896484 395.81640625 110.7109375 C395.87779282 111.39314362 395.93917938 112.07534973 396.00242615 112.77822876 C396.13175935 114.23557092 396.25671463 115.69330707 396.37768555 117.15136719 C396.55668189 119.30499826 396.74862886 121.45711659 396.94335938 123.609375 C398.51821213 141.43390249 399.15271188 159.21953481 399.09765625 177.109375 C399.09578371 178.94167034 399.09436378 180.77396618 399.09336853 182.60626221 C399.08960904 187.35383567 399.07983765 192.10137696 399.06866455 196.84893799 C399.05830644 201.72350632 399.05384055 206.59808001 399.04882812 211.47265625 C399.03820718 220.98178472 399.02121324 230.49088965 399 240 C398.67 240 398.34 240 398 240 C398 234.39 398 228.78 398 223 C379.61550727 228.06417306 379.61550727 228.06417306 361.375 233.6171875 C357.78195357 234.76438595 354.17406859 235.85788004 350.5625 236.9453125 C349.40999756 237.29408447 348.25749512 237.64285645 347.07006836 238.00219727 C344.78834117 238.69194051 342.5053587 239.37754927 340.22094727 240.05834961 C334.62916291 241.75621173 329.34086244 243.64992758 324.04418945 246.11401367 C320.86591555 247.49153141 317.67546334 248.28865175 314.3125 249.125 C310.74840392 250.02065031 307.26391984 250.90806203 303.79296875 252.1171875 C301 253 301 253 297 253 C297 361.57 297 470.14 297 582 C296.67 582 296.34 582 296 582 C296 459.24 296 336.48 296 210 C265.97 210 235.94 210 205 210 C188.97174645 201.98587322 187.4570191 199.78824966 181 183 C181 152.64 181 122.28 181 91 C96.85 91 12.7 91 -74 91 C-74 90.67 -74 90.34 -74 90 C-49.58 90 -25.16 90 0 90 C0 60.3 0 30.6 0 0 Z " fill="#D5D5D5" transform="translate(1026,378)"/>
<path d="M0 0 C0 74.58 0 149.16 0 226 C-8.91 229.63 -17.82 233.26 -27 237 C-36.26230476 240.85133281 -36.26230476 240.85133281 -45.51953125 244.71484375 C-48.97033551 246.15683633 -52.42498395 247.58835604 -55.88671875 249.00390625 C-57.01762939 249.46651855 -57.01762939 249.46651855 -58.17138672 249.93847656 C-59.51729731 250.48789046 -60.86388103 251.03566116 -62.21142578 251.58105469 C-66.90190638 253.49609561 -71.50430574 255.58301044 -76.11108398 257.69067383 C-80.83940048 259.83366051 -85.60855194 261.88110086 -90.375 263.9375 C-97.73512751 267.12194917 -105.04542173 270.37776258 -112.30859375 273.77734375 C-114.80692675 274.91229038 -117.3178287 275.94373749 -119.875 276.9375 C-124.22135232 278.63762799 -128.45578044 280.5357552 -132.6875 282.5 C-133.30544434 282.78480225 -133.92338867 283.06960449 -134.56005859 283.36303711 C-137.74057565 284.8529746 -140.80292072 286.43903986 -143.83203125 288.21875 C-147 290 -147 290 -149 290 C-149.33 290.99 -149.66 291.98 -150 293 C-166.97898125 232.47673885 -166.97898125 232.47673885 -169.63330078 216.22363281 C-170.08112692 213.50805328 -170.55492108 210.79734437 -171.02734375 208.0859375 C-171.39410118 205.95327478 -171.75998638 203.82046187 -172.125 201.6875 C-172.29604248 200.69661377 -172.46708496 199.70572754 -172.64331055 198.68481445 C-173.60306807 192.95355419 -174.30091618 187.26173982 -174.78076172 181.47094727 C-175.0592178 178.33257974 -175.50351611 175.23578189 -176 172.125 C-176.165 171.07570313 -176.33 170.02640625 -176.5 168.9453125 C-176.80049948 167.17518274 -177.12595799 165.40864936 -177.5 163.65258789 C-178.00693168 160.96322622 -178.28496138 158.3408638 -178.5 155.61328125 C-178.62375 154.0809082 -178.62375 154.0809082 -178.75 152.51757812 C-178.8325 151.45990234 -178.915 150.40222656 -179 149.3125 C-179.16584423 147.22519491 -179.33250272 145.13795434 -179.5 143.05078125 C-179.58193604 142.02597656 -179.66387207 141.00117187 -179.74829102 139.9453125 C-179.97449632 137.29842526 -180.24213465 134.66057281 -180.52734375 132.01953125 C-181.12504087 126.14724477 -181.35993935 120.27255114 -181.5625 114.375 C-181.6049585 113.16110596 -181.64741699 111.94721191 -181.69116211 110.6965332 C-182.2326421 93.13711053 -182.08679236 75.56543812 -182 58 C-179.65986578 56.74157585 -177.31855999 55.48541701 -174.9765625 54.23046875 C-174.32502197 53.87980347 -173.67348145 53.52913818 -173.00219727 53.16784668 C-163.0557958 47.84446381 -152.88073992 43.19285578 -142.30859375 39.24609375 C-138.70260584 37.88799441 -135.13281257 36.44829111 -131.5625 35 C-125.69593861 32.63228896 -119.78189898 30.44714812 -113.8046875 28.37109375 C-111.56899836 27.58597701 -109.36642099 26.74941386 -107.16235352 25.87768555 C-99.27644749 22.76088927 -91.3540818 20.21010721 -83.1875 17.9375 C-81.95410889 17.59025879 -80.72071777 17.24301758 -79.44995117 16.88525391 C-71.40223622 14.6331443 -63.346706 12.46155131 -55.21533203 10.53027344 C-52.53514385 9.88872961 -49.85958586 9.22913687 -47.18359375 8.5703125 C-37.13353457 6.10838007 -27.07241992 3.7141991 -16.9375 1.625 C-16.14762695 1.45742188 -15.35775391 1.28984375 -14.54394531 1.1171875 C-13.7959668 0.96765625 -13.04798828 0.818125 -12.27734375 0.6640625 C-11.32202759 0.46997803 -11.32202759 0.46997803 -10.34741211 0.27197266 C-6.92001101 -0.12512821 -3.45032859 0 0 0 Z " fill="#D4D4D4" transform="translate(950,551)"/>
<path d="M0 0 C9.19193138 7.30393348 15.83323947 15.33455811 21.25 25.6875 C21.5795166 26.29795166 21.9090332 26.90840332 22.24853516 27.53735352 C28.63730116 40.33285902 28.39660203 53.95853636 28.1875 67.875 C28.17241064 69.64191555 28.15872983 71.40884371 28.14648438 73.17578125 C28.11385054 77.45083963 28.06230911 81.72527541 28 86 C29.02915527 85.970271 30.05831055 85.94054199 31.11865234 85.90991211 C32.48273544 85.88586765 33.84683147 85.86254984 35.2109375 85.83984375 C35.88761475 85.8183728 36.56429199 85.79690186 37.26147461 85.77478027 C42.53743409 85.7089512 45.572756 86.6667452 49.41796875 90.21875 C55.00930199 96.51417705 57.08789003 100.94010561 57.17700195 109.5144043 C57.19625481 111.13846443 57.19625481 111.13846443 57.21589661 112.79533386 C57.22328354 113.95986588 57.23067047 115.12439789 57.23828125 116.32421875 C57.246353 117.53962845 57.25442474 118.75503815 57.26274109 120.00727844 C57.27656867 122.58532289 57.28729674 125.16338555 57.29516602 127.74145508 C57.30662001 130.34893244 57.32696549 132.9563876 57.35668945 135.5637207 C57.71813254 167.29600086 51.77144512 193.94237728 30 218 C29.12988281 218.96421875 28.25976562 219.9284375 27.36328125 220.921875 C12.40316735 236.92214978 -7.09555797 247.92489296 -27.16699219 256.22558594 C-28.40608266 256.74908021 -29.6360009 257.29474845 -30.85644531 257.86035156 C-37.93869668 261.10940596 -43.6762732 260.26125934 -50.890625 257.6796875 C-66.07379258 251.836043 -80.39662861 244.32729085 -93 234 C-93.79615723 233.36191406 -93.79615723 233.36191406 -94.60839844 232.7109375 C-116.31961988 215.29102493 -133.54844067 192.27359699 -137 164 C-137.66379077 154.4673318 -137.66402353 144.91674538 -137.63134766 135.36547852 C-137.61965174 131.65335893 -137.65396995 127.94320104 -137.700037 124.23140621 C-137.7296225 121.33576615 -137.73124287 118.44059667 -137.72501755 115.54483223 C-137.72652212 113.51921395 -137.75409203 111.49366777 -137.78237915 109.46824646 C-137.70163198 101.41418948 -136.6112306 95.98382334 -131 90 C-126.25268662 85.91204318 -121.98916859 84.87108421 -115.8125 84.9375 C-114.72582031 84.94652344 -113.63914062 84.95554687 -112.51953125 84.96484375 C-111.68808594 84.97644531 -110.85664062 84.98804688 -110 85 C-110.01047363 84.03288086 -110.02094727 83.06576172 -110.03173828 82.06933594 C-110.06839541 78.42386694 -110.09106377 74.77841364 -110.10986328 71.1328125 C-110.11981813 69.56572719 -110.1333869 67.99865993 -110.15087891 66.43164062 C-110.39432339 44.03474843 -106.1321737 24.22031638 -90.421875 7.26171875 C-65.02144347 -16.45900682 -28.8693227 -20.20403611 0 0 Z " fill="#204564" transform="translate(1161,836)"/>
<path d="M0 0 C4.59551872 3.72756699 8.81176546 7.8275864 13 12 C14.12921875 13.07701172 14.12921875 13.07701172 15.28125 14.17578125 C25.86419624 24.98970449 32.1561928 40.51293751 34.6875 55.25 C34.81415039 55.98379883 34.94080078 56.71759766 35.07128906 57.47363281 C36.12841146 64.02437239 36.33440689 70.37038347 36 77 C35.9690625 78.03253906 35.938125 79.06507812 35.90625 80.12890625 C34.67624598 105.19023809 23.56671478 127.71449631 5.15234375 144.61328125 C-9.93919148 156.63253695 -30.63619878 164.52481469 -50 165 C-51.14984375 165.061875 -52.2996875 165.12375 -53.484375 165.1875 C-68.93110413 165.67593412 -83.93210271 162.42887779 -98 156 C-99.37671875 155.37351562 -99.37671875 155.37351562 -100.78125 154.734375 C-121.32646347 144.46176826 -135.69524262 125.46322173 -142.9375 104 C-150.64221686 80.18067196 -147.58583006 51.08944014 -136.3125 29 C-125.39903267 9.26146133 -107.37059538 -5.10546808 -86 -12 C-84.84628906 -12.39316406 -83.69257812 -12.78632812 -82.50390625 -13.19140625 C-55.56352379 -21.23707718 -22.99096911 -16.29281276 0 0 Z " fill="#082941" transform="translate(1553,1390)"/>
<path d="M0 0 C12.54 0 25.08 0 38 0 C48.52634392 22.66087926 58.90182119 45.37661128 69.0010376 68.23100281 C71.36663718 73.5802936 73.75052129 78.92118056 76.14453125 84.2578125 C76.66508339 85.41827087 76.66508339 85.41827087 77.19615173 86.60217285 C77.9015765 88.17453548 78.60703623 89.74688243 79.31253052 91.31921387 C86.0407215 106.31661536 92.67477621 121.35306995 99.26242065 136.41268921 C104.39932119 148.14948686 109.61444559 159.84645493 114.9375 171.5 C122.72759647 188.55608536 130.35203778 205.68011171 137.6875 222.9375 C138.0270874 223.73140137 138.3666748 224.52530273 138.71655273 225.34326172 C141 230.76319253 141 230.76319253 141 233 C127.14 233 113.28 233 99 233 C97.35 228.71 95.7 224.42 94 220 C92.95668304 217.49786993 91.89657692 215.00256524 90.80859375 212.51953125 C90.5366066 211.89576096 90.26461945 211.27199066 89.98439026 210.62931824 C89.13806804 208.68921108 88.28811417 206.75072872 87.4375 204.8125 C86.58379196 202.86335821 85.730975 200.91383892 84.87989807 198.96354675 C84.11117915 197.20249847 83.33974644 195.44263549 82.56811523 193.68286133 C80.63906263 189.15230574 78.82878056 184.5719514 77 180 C19.085 179.505 19.085 179.505 -40 179 C-40.99 181.97 -41.98 184.94 -43 188 C-43.59555093 189.51334217 -44.21208579 191.01902886 -44.86938477 192.5065918 C-45.20305557 193.26735519 -45.53672638 194.02811859 -45.88050842 194.81193542 C-46.23060471 195.59973892 -46.58070099 196.38754242 -46.94140625 197.19921875 C-47.30975082 198.03789993 -47.6780954 198.87658112 -48.05760193 199.74067688 C-49.22214784 202.39128937 -50.39184795 205.03957929 -51.5625 207.6875 C-52.73624585 210.3463346 -53.90877262 213.00568147 -55.07810974 215.66645813 C-55.80220713 217.31378687 -56.52884798 218.96000076 -57.25843811 220.60490417 C-57.58895676 221.35621109 -57.9194754 222.10751801 -58.26000977 222.8815918 C-58.5485231 223.53395309 -58.83703644 224.18631439 -59.1342926 224.85844421 C-60.21255323 227.52580653 -61.0901941 230.27058231 -62 233 C-75.53 233 -89.06 233 -103 233 C-101.17979268 227.53937803 -99.46326063 222.50688571 -97.1796875 217.296875 C-96.91971985 216.70046707 -96.6597522 216.10405914 -96.39190674 215.48957825 C-95.55646923 213.5748192 -94.71579822 211.66241026 -93.875 209.75 C-92.99541898 207.73833887 -92.11711124 205.7261249 -91.23886108 203.71388245 C-90.65388878 202.37386981 -90.06846195 201.0340555 -89.48257446 199.69444275 C-86.9932254 193.99934417 -84.55544316 188.2829595 -82.125 182.5625 C-79.19337296 175.68635963 -76.11752875 168.90621906 -72.921875 162.1484375 C-70.48120939 156.93144972 -68.18551381 151.65056412 -65.875 146.375 C-60.21071238 133.44598893 -54.44261341 120.56457706 -48.65722656 107.68945312 C-45.93400804 101.62816034 -43.21757502 95.56382445 -40.5 89.5 C-39.95412778 88.28245895 -39.40822929 87.06492967 -38.86230469 85.84741211 C-36.22627729 79.96828414 -33.59174014 74.08849922 -30.9609375 68.20703125 C-24.70563738 54.22793386 -18.4186158 40.26338565 -12.11016846 26.30819702 C-11.24904251 24.40321761 -10.38815968 22.49812828 -9.52752686 20.59292603 C-8.31737895 17.91442966 -7.10612924 15.23643444 -5.89453125 12.55859375 C-5.53052719 11.75261749 -5.16652313 10.94664124 -4.79148865 10.11624146 C-4.45271194 9.3681723 -4.11393524 8.62010315 -3.76489258 7.84936523 C-3.47101151 7.19959213 -3.17713043 6.54981903 -2.87434387 5.88035583 C-1.95443911 3.90201718 -0.97570985 1.95141971 0 0 Z " fill="#092940" transform="translate(528,1318)"/>
<path d="M0 0 C0.6796582 0.26272705 1.35931641 0.5254541 2.05957031 0.79614258 C23.0991835 9.1917099 38.08751786 24.7109628 47.22558594 45.28857422 C54.62037924 63.1715487 54.0625 80.90487701 54.0625 100.3125 C8.8525 100.3125 -36.3575 100.3125 -82.9375 100.3125 C-79.30436609 110.42741842 -79.30436609 110.42741842 -74.375 119.3125 C-73.81683594 120.158125 -73.25867187 121.00375 -72.68359375 121.875 C-64.79483475 132.88749578 -53.63818856 139.75004689 -40.46484375 142.7734375 C-21.94117647 145.60429695 -3.84314362 142.26432964 12.0625 132.3125 C14.94890563 130.15882848 17.58262536 127.92289435 20.0625 125.3125 C23.79753769 126.88835506 26.31529431 129.23468569 29.25 132 C33.99439874 136.39367034 38.88064232 140.44849748 44.0625 144.3125 C39.61508342 155.2425916 24.93230114 163.36768796 14.65771484 167.72680664 C-12.5848979 178.76818808 -40.79481366 179.58431827 -68.4375 169.0625 C-88.82282399 159.66292698 -106.425575 143.37468199 -114.75585938 122.23583984 C-122.39708323 100.80996602 -124.00243992 71.61398412 -114.9375 50.3125 C-114.67517578 49.68408203 -114.41285156 49.05566406 -114.14257812 48.40820312 C-104.97872202 27.11377492 -88.42113903 10.33208728 -66.984375 1.44140625 C-65.97890625 1.06886719 -64.9734375 0.69632813 -63.9375 0.3125 C-62.70515625 -0.15285156 -61.4728125 -0.61820313 -60.203125 -1.09765625 C-41.48564046 -7.51137054 -18.48925537 -7.19000083 0 0 Z " fill="#092941" transform="translate(1325.9375,1378.6875)"/>
<path d="M0 0 C0.33 0 0.66 0 1 0 C1.33 20.79 1.66 41.58 2 63 C17.345 62.505 17.345 62.505 33 62 C38.85553326 61.90132024 44.70229515 61.81714256 50.55737305 61.79125977 C52.06955128 61.78164373 53.58172777 61.77175039 55.09390259 61.76161194 C59.89981777 61.73124652 64.70574572 61.71014599 69.51171875 61.69140625 C70.33966957 61.68810893 71.1676204 61.68481161 72.02066064 61.68141437 C79.86469078 61.65078882 87.70872648 61.62419356 95.55279827 61.60699558 C105.46476225 61.58496709 115.37619469 61.54249919 125.2879464 61.47355801 C132.33583104 61.42623171 139.38357194 61.40205486 146.43161041 61.3947987 C150.61246814 61.38987651 154.79271323 61.37511303 158.97339439 61.3350544 C162.88839464 61.29799472 166.80243569 61.28984035 170.71757889 61.30306053 C172.1429423 61.30300699 173.56835107 61.29287979 174.99355125 61.2713089 C188.37439363 61.07973642 197.60087479 65.06399085 207.24502563 74.26559448 C208.60873795 75.61912521 208.60873795 75.61912521 210 77 C211.13294336 78.10929145 212.26621537 79.21824731 213.39974976 80.32693481 C217.42048936 84.27760666 221.40413867 88.26483016 225.38671875 92.25390625 C226.85766796 93.72418027 228.32876545 95.19430595 229.80000305 96.66429138 C232.86674826 99.72957068 235.93169903 102.79662975 238.99536133 105.86499023 C242.90548347 109.7808191 246.8200926 113.69212674 250.73605633 117.60211277 C253.76889032 120.63131979 256.79932203 123.66292107 259.82905006 126.6952343 C261.27109385 128.13794092 262.71386907 129.57991686 264.15741539 131.02112007 C266.17859258 133.03973433 268.19649748 135.06156664 270.21362305 137.08422852 C270.79924515 137.66782639 271.38486725 138.25142426 271.98823547 138.85270691 C275.63423965 142.51710568 279.08058586 146.31110962 282.45098591 150.23068142 C284.52641693 152.6012852 286.74324519 154.80263347 289 157 C291.93118191 159.89591958 294.76403174 162.80242571 297.4375 165.9375 C300.25741905 169.24178161 303.27128628 172.2733573 306.375 175.3125 C316.82472355 185.6758622 324.41671715 193.9364387 324.51171875 209.0859375 C324.53864555 210.67131821 324.53864555 210.67131821 324.56611633 212.28872681 C324.62011938 215.6507778 324.65408362 219.0126876 324.6875 222.375 C324.72068183 224.66017585 324.75517229 226.9453331 324.79101562 229.23046875 C324.87584009 234.82018588 324.94423229 240.40992151 325 246 C323.77023437 246.33773437 322.54046875 246.67546875 321.2734375 247.0234375 C319.64060198 247.47387489 318.00779076 247.92440038 316.375 248.375 C315.56675781 248.59671875 314.75851562 248.8184375 313.92578125 249.046875 C310.46403411 250.00378071 307.05689015 250.9801484 303.6640625 252.1640625 C301 253 301 253 297 253 C297 361.57 297 470.14 297 582 C296.67 582 296.34 582 296 582 C296 459.24 296 336.48 296 210 C265.97 210 235.94 210 205 210 C188.97174645 201.98587322 187.4570191 199.78824966 181 183 C181 152.64 181 122.28 181 91 C96.85 91 12.7 91 -74 91 C-74 90.67 -74 90.34 -74 90 C-49.58 90 -25.16 90 0 90 C0 60.3 0 30.6 0 0 Z " fill="#C1C2C1" transform="translate(1026,378)"/>
<path d="M0 0 C12.21 0 24.42 0 37 0 C37 29.04 37 58.08 37 88 C37.66 88 38.32 88 39 88 C39.26296875 87.41734375 39.5259375 86.8346875 39.796875 86.234375 C45.55329081 75.54388849 58.55622951 69.20290837 69.6875 65.625 C71.7846335 65.05671203 73.88865788 64.51298594 76 64 C77.26457031 63.66355469 77.26457031 63.66355469 78.5546875 63.3203125 C95.69715486 59.42186977 115.44819253 61.19697739 131.125 69.375 C132.4376908 70.21813144 133.73028772 71.09343588 135 72 C136.09441406 72.71736328 136.09441406 72.71736328 137.2109375 73.44921875 C152.29169722 84.07780879 158.38060141 100.54471347 161.54490662 118.00709534 C162.25152568 123.16356592 162.13099817 128.3402828 162.11352539 133.53491211 C162.11367142 134.67710205 162.11381744 135.81929199 162.1139679 136.99609375 C162.11327343 140.75653 162.10550286 144.51691619 162.09765625 148.27734375 C162.09579042 150.89050774 162.09436729 153.50367208 162.09336853 156.11683655 C162.09026759 162.2825319 162.08207095 168.4482094 162.07201904 174.61389691 C162.06081939 181.63689773 162.05533776 188.65989944 162.05032361 195.68290699 C162.03988725 210.12194849 162.02155723 224.56097069 162 239 C149.79 239 137.58 239 125 239 C124.9906543 235.83720459 124.98130859 232.67440918 124.97167969 229.41577148 C124.93778025 218.91839106 124.88215964 208.42120453 124.81609726 197.92397976 C124.77673512 191.56495124 124.74449148 185.20605887 124.72900391 178.84692383 C124.71376309 172.6999796 124.67918631 166.55340998 124.63169098 160.40663338 C124.61695349 158.0717604 124.60896341 155.73683393 124.60811615 153.4019146 C124.98392729 129.02424123 124.98392729 129.02424123 114 108 C111.16505387 105.62506399 108.27086586 103.72023316 105 102 C104.05918579 101.48590576 104.05918579 101.48590576 103.09936523 100.96142578 C96.91955081 97.85598446 91.54105924 97.36850598 84.6875 97.5 C83.16237793 97.52030273 83.16237793 97.52030273 81.60644531 97.54101562 C68.93161903 97.89027389 59.46530329 101.35581924 50 110 C40.71469767 120.40713254 37.87722804 132.46647214 37.79467773 146.02270508 C37.78477814 147.02805298 37.77487854 148.03340088 37.76467896 149.06921387 C37.73313935 152.38596253 37.70833629 155.7027255 37.68359375 159.01953125 C37.66301772 161.32167428 37.64202107 163.62381358 37.62062073 165.9259491 C37.56546715 171.98067202 37.51602824 178.03542865 37.46777344 184.09020996 C37.4175094 190.2704569 37.36184893 196.45065497 37.30664062 202.63085938 C37.19914114 214.75386602 37.0981767 226.87691426 37 239 C24.79 239 12.58 239 0 239 C0 160.13 0 81.26 0 0 Z " fill="#072840" transform="translate(1008,1312)"/>
<path d="M0 0 C0.28401106 32.30953568 -0.75646388 63.58879343 -5.1436615 95.64930725 C-5.86184546 100.91701609 -6.53445886 106.189665 -7.1953125 111.46484375 C-10.41662608 137.04691051 -14.71325543 162.14449084 -20.6640625 187.25 C-21.72170623 191.73591827 -22.65551476 196.21958505 -23.5 200.75 C-32.84861796 248.12689439 -52.67422926 294.4797611 -73 338 C-73.33 338 -73.66 338 -74 338 C-74.04573621 297.90491099 -74.08099822 257.80982538 -74.10213066 217.71471552 C-74.1046322 212.98559155 -74.10722083 208.25646764 -74.10986328 203.52734375 C-74.1103879 202.58582472 -74.11091252 201.64430569 -74.11145304 200.67425577 C-74.12016553 185.41136323 -74.13594013 170.1484857 -74.15430559 154.88560207 C-74.1729812 139.23492161 -74.18411176 123.58424902 -74.18817699 107.93355787 C-74.19092692 98.26927645 -74.19962522 88.60503743 -74.21583293 78.94076906 C-74.22637098 72.32168079 -74.22960788 65.70261458 -74.22700275 59.08351852 C-74.22571648 55.25953847 -74.22774548 51.43563271 -74.23841095 47.61166573 C-74.24986738 43.47410358 -74.24599843 39.33670146 -74.24050903 35.1991272 C-74.24633472 33.97930417 -74.2521604 32.75948114 -74.25816262 31.50269377 C-74.25418052 30.40144207 -74.25019842 29.30019037 -74.24609566 28.1655674 C-74.2468551 27.20943161 -74.24761454 26.25329581 -74.24839699 25.26818621 C-74 23 -74 23 -72 21 C-70.16259766 20.22558594 -70.16259766 20.22558594 -67.9140625 19.484375 C-66.65698486 19.0665979 -66.65698486 19.0665979 -65.37451172 18.64038086 C-64.46717285 18.34655518 -63.55983398 18.05272949 -62.625 17.75 C-61.68543457 17.4413501 -60.74586914 17.1327002 -59.77783203 16.81469727 C-52.68736711 14.50320807 -45.5613934 12.32234828 -38.40966797 10.20898438 C-31.72339626 8.23238097 -25.07525941 6.1480036 -18.44091797 4.00366211 C-5.94174763 0 -5.94174763 0 0 0 Z " fill="#B5B6B7" transform="translate(1424,601)"/>
<path d="M0 0 C0.66863068 0.00215515 1.33726135 0.0043103 2.02615356 0.00653076 C24.18322333 0.1214082 46.52391797 5.44121902 62.83544922 21.44116211 C65.39258343 24.02585616 67.89557766 26.65311959 70.375 29.3125 C66.12688234 34.44180616 61.64771023 39.05504556 56.75 43.5625 C56.09515625 44.17351562 55.4403125 44.78453125 54.765625 45.4140625 C51.74407 48.2154232 48.75684165 50.94349418 45.375 53.3125 C44.77816406 52.755625 44.18132812 52.19875 43.56640625 51.625 C27.20022108 37.22859343 10.7047582 33.95488272 -10.625 35.3125 C-23.4990416 37.56997222 -35.64945668 45.58839079 -43.1875 56.1875 C-52.56413224 70.05410031 -54.49268086 84.86916229 -52.625 101.3125 C-49.54955267 116.10095197 -42.70634053 128.96760998 -30.0625 137.6875 C-28.59693471 138.58509535 -27.11814288 139.46156911 -25.625 140.3125 C-24.96757813 140.70179688 -24.31015625 141.09109375 -23.6328125 141.4921875 C-11.02132529 148.43103789 5.29290452 147.73186226 18.921875 144.41796875 C28.44824824 141.36823614 37.54413367 136.77330213 44.375 129.3125 C44.705 128.6525 45.035 127.9925 45.375 127.3125 C49.26519391 128.9165136 52.00100582 131.57741985 55 134.4375 C60.24410176 139.35079745 65.68430581 143.91857905 71.375 148.3125 C68.61937505 154.82579533 63.67020899 159.26387607 58 163.25 C57.09133179 163.89122803 57.09133179 163.89122803 56.16430664 164.54541016 C45.85647854 171.60071044 34.45273809 176.19919705 22.375 179.3125 C21.12976563 179.65087891 21.12976563 179.65087891 19.859375 179.99609375 C-4.49470482 185.54851761 -30.8276075 179.98842903 -51.84375 167.1640625 C-56.35615653 164.16001658 -60.54186463 160.87453592 -64.625 157.3125 C-65.23859375 156.78269531 -65.8521875 156.25289062 -66.484375 155.70703125 C-81.85758198 141.42687339 -91.04320674 120.26362141 -92.07421875 99.49609375 C-92.7729979 72.6104293 -87.16025355 47.82842127 -68.08984375 27.71484375 C-54.91036409 14.86955058 -41.37868689 6.87476408 -23.625 2.3125 C-22.97563477 2.12631104 -22.32626953 1.94012207 -21.65722656 1.74829102 C-14.50506004 -0.12295404 -7.35389244 -0.03199531 0 0 Z " fill="#082941" transform="translate(903.625,1373.6875)"/>
<path d="M0 0 C0.36739387 39.87289475 0.64874424 79.74556628 0.81704527 119.6198198 C0.83705308 124.34290346 0.85776258 129.0659838 0.87890625 133.7890625 C0.88310322 134.72921807 0.88730018 135.66937364 0.89162433 136.63801877 C0.96096996 151.79844496 1.08696597 166.95788591 1.23444474 182.11773045 C1.38484592 197.70972484 1.47310231 213.30120852 1.50541592 228.89389837 C1.52721248 238.49173415 1.59566193 248.08678418 1.72666347 257.68376075 C1.81220592 264.29306704 1.83658993 270.90096477 1.81602204 277.5107825 C1.80591641 281.30769871 1.81972566 285.0998039 1.9072876 288.89583015 C2.42089587 312.32832582 -3.79054836 327.4846706 -16 347 C-17.51019443 349.57022091 -18.99522417 352.15301919 -20.47281551 354.74205363 C-24.93154561 362.51241594 -24.93154561 362.51241594 -28.5218811 364.15084839 C-33.0324436 365.25206187 -37.23551305 365.26345863 -41.86083984 365.22705078 C-42.83707306 365.22734283 -43.81330627 365.22763489 -44.81912231 365.22793579 C-48.03315237 365.22654687 -51.24694814 365.21100612 -54.4609375 365.1953125 C-56.69438551 365.19158082 -58.92783516 365.18873458 -61.1612854 365.18673706 C-67.03029933 365.17911284 -72.89921377 365.15947467 -78.76818848 365.1373291 C-84.76080988 365.11684463 -90.75344741 365.10772978 -96.74609375 365.09765625 C-108.49744651 365.07622769 -120.2486994 365.04105534 -132 365 C-132 355.43 -132 345.86 -132 336 C-97.35 336 -62.7 336 -27 336 C-27 227.43 -27 118.86 -27 7 C-2.5 0 -2.5 0 0 0 Z " fill="#A0A1A3" transform="translate(1350,624)"/>
<path d="M0 0 C12.36642474 9.53837903 20.33447559 21.52851549 23 37 C24.74044192 54.50784713 22.08182415 72.12918604 11.1875 86.4375 C2.40290496 96.58636926 -9.64724104 104.05830211 -23.27514648 105.1887207 C-25.66601347 105.26709755 -28.04554565 105.27316663 -30.4375 105.25 C-31.62956055 105.26160156 -31.62956055 105.26160156 -32.84570312 105.2734375 C-45.68581787 105.23164705 -57.69623422 100.97365841 -67.12890625 92.03125 C-79.95940662 78.10252309 -84.68242156 62.67028781 -84.3125 44.125 C-83.62140102 28.62134624 -77.26730578 14.66153665 -66 4 C-58.83349866 -2.19265621 -50.95060336 -5.27198235 -42 -8 C-41.34773438 -8.20367188 -40.69546875 -8.40734375 -40.0234375 -8.6171875 C-26.01711834 -11.26703167 -11.67953826 -7.92003024 0 0 Z " fill="#FCFDFD" transform="translate(1528,1416)"/>
<path d="M0 0 C0 12.54 0 25.08 0 38 C-4.62 38.33 -9.24 38.66 -14 39 C-17.03000716 39.60952762 -19.77247764 40.21376206 -22.6875 41.125 C-23.75665649 41.45213989 -23.75665649 41.45213989 -24.84741211 41.78588867 C-31.26078154 43.87101285 -36.69294227 46.81068079 -42 51 C-42.72574219 51.57234375 -43.45148437 52.1446875 -44.19921875 52.734375 C-53.02424145 60.60125238 -58.218132 72.63429496 -59.19481277 84.33358955 C-59.28259248 86.80483588 -59.31260709 89.26964156 -59.31884766 91.74243164 C-59.33391609 93.1342868 -59.33391609 93.1342868 -59.34928894 94.55426025 C-59.37992309 97.58955321 -59.3971007 100.62475879 -59.4140625 103.66015625 C-59.43279007 105.77722414 -59.45236465 107.89428469 -59.4727478 110.01133728 C-59.52390707 115.55963804 -59.56361927 121.10796296 -59.60089111 126.65637207 C-59.64103269 132.32761532 -59.69207857 137.99875949 -59.7421875 143.66992188 C-59.83875483 154.77988497 -59.92221184 165.88988953 -60 177 C-72.21 177 -84.42 177 -97 177 C-97 119.91 -97 62.82 -97 4 C-85.12 4 -73.24 4 -61 4 C-61 14.23 -61 24.46 -61 35 C-60.34 35 -59.68 35 -59 35 C-58.91621094 34.29488281 -58.83242188 33.58976562 -58.74609375 32.86328125 C-56.29465814 23.4554158 -46.92013632 15.02728215 -39 10 C-26.32157387 2.79062733 -14.70347546 0 0 0 Z " fill="#092940" transform="translate(795,1374)"/>
<path d="M0 0 C95.37 0 190.74 0 289 0 C289 8.58 289 17.16 289 26 C193.63 26 98.26 26 0 26 C0 17.42 0 8.84 0 0 Z " fill="#B5B7B8" transform="translate(992,708)"/>
<path d="M0 0 C0 60.39 0 120.78 0 183 C24.09 183 48.18 183 73 183 C73 175.41 73 167.82 73 160 C73.33 160 73.66 160 74 160 C74 176.83 74 193.66 74 211 C70.17179968 211.95705008 67.17190694 212.13899475 63.24707031 212.16113281 C62.57658661 212.16609772 61.90610291 212.17106262 61.21530151 212.17617798 C59.00289878 212.19075052 56.7905678 212.19759413 54.578125 212.203125 C53.03358968 212.20888144 51.48905436 212.21463911 49.94451904 212.22039795 C46.70649891 212.23089465 43.4685035 212.2367457 40.23046875 212.24023438 C36.09696846 212.24570975 31.96379912 212.26972268 27.83040237 212.29820633 C24.6389269 212.3169039 21.44752993 212.32204213 18.25600433 212.32357025 C16.73308253 212.32658236 15.21016163 212.3345618 13.68729401 212.34775543 C1.09976742 212.44900677 -7.6245304 210.97614404 -17 202 C-25.79630496 191.34882204 -26.43140569 181.23748691 -26.34057617 168.02734375 C-26.33972914 166.30204788 -26.34020653 164.57675093 -26.34190369 162.85145569 C-26.34276209 158.18462733 -26.32516147 153.51803174 -26.30418181 148.85125732 C-26.28538913 143.96790761 -26.28366253 139.08455217 -26.28010559 134.20117188 C-26.27079274 124.96136114 -26.24618923 115.72165728 -26.21605712 106.48189354 C-26.18248947 95.95955328 -26.16602115 85.43720784 -26.15097082 74.91482735 C-26.11963901 53.27649198 -26.06689328 31.63825273 -26 10 C-22.23306487 8.32442019 -18.46084826 6.66108133 -14.6875 5 C-13.61564453 4.52304687 -12.54378906 4.04609375 -11.43945312 3.5546875 C-9.89741211 2.87792969 -9.89741211 2.87792969 -8.32421875 2.1875 C-7.37635498 1.76855469 -6.42849121 1.34960938 -5.4519043 0.91796875 C-3 0 -3 0 0 0 Z " fill="#A0A1A3" transform="translate(950,777)"/>
<path d="M0 0 C94.71 0 189.42 0 287 0 C287 7.92 287 15.84 287 24 C192.29 24 97.58 24 0 24 C0 16.08 0 8.16 0 0 Z " fill="#C9C9C9" transform="translate(993,650)"/>
<path d="M0 0 C0 74.58 0 149.16 0 226 C-24 236 -24 236 -26 236 C-26.85042349 230.8637928 -27.13667587 225.88911982 -27.10534668 220.68045044 C-27.10454259 219.87915231 -27.1037385 219.07785417 -27.10291004 218.25227427 C-27.09893269 215.6084133 -27.0876389 212.96463905 -27.07617188 210.32080078 C-27.07160353 208.43834074 -27.06741738 206.55587974 -27.063591 204.67341805 C-27.04969889 198.78224335 -27.02529046 192.89113489 -27 187 C-26.99281655 185.17188291 -26.98570416 183.34376555 -26.97866821 181.51564789 C-26.93173986 169.60649684 -26.86726268 157.69747051 -26.79807091 145.78843069 C-26.76918454 140.77181054 -26.74167194 135.75518282 -26.71398926 130.73855591 C-26.66179618 121.31576035 -26.60843757 111.89297179 -26.5546174 102.4701854 C-26.49321867 91.71005009 -26.43318445 80.94990729 -26.37324238 70.18976378 C-26.25030405 48.12650077 -26.12572517 26.0632473 -26 4 C-24.12577848 3.51779737 -22.25058246 3.03938167 -20.375 2.5625 C-18.80878906 2.16224609 -18.80878906 2.16224609 -17.2109375 1.75390625 C-11.1665201 0.33471822 -6.36187455 0 0 0 Z " fill="#BDBEBD" transform="translate(950,551)"/>
<path d="M0 0 C69.63 0 139.26 0 211 0 C211 8.25 211 16.5 211 25 C141.37 25 71.74 25 0 25 C0 16.75 0 8.5 0 0 Z " fill="#BABBBD" transform="translate(993,768)"/>
<path d="M0 0 C2.83751394 3.41372439 4.59204375 7.16632001 6.37890625 11.19140625 C6.86546188 12.27336525 6.86546188 12.27336525 7.36184692 13.37718201 C8.43473311 15.76965515 9.49909534 18.16579883 10.5625 20.5625 C10.93049713 21.38758057 11.29849426 22.21266113 11.67764282 23.06274414 C19.78874767 41.25853183 27.48104285 59.6276558 35.09724426 78.03501892 C36.65613568 81.79646332 38.22916442 85.54997645 39.85009766 89.28515625 C40.13359573 89.93863037 40.41709381 90.59210449 40.70918274 91.26538086 C41.46229749 92.99365775 42.22079708 94.7195854 42.97973633 96.4453125 C44 99 44 99 44 101 C15.29 101 -13.42 101 -43 101 C-41.04921924 95.14765771 -39.06726627 89.51439229 -36.6640625 83.86328125 C-36.3484436 83.11391296 -36.03282471 82.36454468 -35.7076416 81.59246826 C-34.68363048 79.16430079 -33.65453407 76.73833034 -32.625 74.3125 C-31.90596404 72.61194987 -31.18705281 70.911347 -30.46826172 69.21069336 C-24.55730907 55.24338443 -18.55084315 41.31866733 -12.48730469 27.41699219 C-10.98737214 23.97098827 -9.49632349 20.52126381 -8.0078125 17.0703125 C-7.54101074 15.98999756 -7.07420898 14.90968262 -6.59326172 13.79663086 C-5.72084458 11.77732292 -4.84998606 9.75734062 -3.98095703 7.73657227 C-3.60052246 6.85799561 -3.22008789 5.97941895 -2.828125 5.07421875 C-2.4971582 4.30682373 -2.16619141 3.53942871 -1.82519531 2.7487793 C-1 1 -1 1 0 0 Z " fill="#FBFCFB" transform="translate(546,1363)"/>
<path d="M0 0 C4.09065483 3.3679194 7.54418586 6.63107908 10.8984375 10.7421875 C12.73724472 12.71770901 14.59789937 14.41098346 16.64428711 16.16213989 C20.86487856 19.83533235 24.843759 23.70247808 28.79296875 27.66357422 C29.52565475 28.3945079 30.25834076 29.12544159 31.01322937 29.87852478 C33.40715545 32.26808894 35.79745217 34.6612448 38.1875 37.0546875 C39.85743855 38.7239519 41.52752549 40.39306787 43.19775391 42.06204224 C46.68245374 45.54527322 50.16535163 49.03029327 53.64697266 52.51660156 C58.1205743 56.99593112 62.59869201 61.47071482 67.07814026 65.9441967 C70.5198691 69.38232438 73.95922801 72.82281483 77.39785767 76.2640419 C79.04943338 77.91628652 80.70175726 79.56778361 82.35482788 81.21853256 C84.6530347 83.51421684 86.94804071 85.81305239 89.2421875 88.11279297 C89.93092453 88.79950577 90.61966156 89.48621857 91.32926941 90.19374084 C91.94876968 90.81606094 92.56826996 91.43838104 93.20654297 92.07955933 C94.02057083 92.89415273 94.02057083 92.89415273 94.8510437 93.72520256 C96 95 96 95 96 96 C85.42946535 96.06960079 74.85898548 96.12286248 64.28826809 96.15543652 C59.37951483 96.17107275 54.4709187 96.19227373 49.56225586 96.22631836 C44.82251001 96.25898462 40.08291502 96.27686838 35.34306526 96.28463173 C33.53741139 96.2901622 31.73176549 96.30096187 29.92617607 96.31719017 C27.39127829 96.33906119 24.85699888 96.34196291 22.32202148 96.34057617 C21.20963104 96.35675491 21.20963104 96.35675491 20.07476807 96.3732605 C14.91181978 96.34282529 11.50187869 95.34452282 7 93 C1.6532284 87.50872106 0.70239262 82.26767709 0.68115234 74.81323242 C0.67110672 74.00295593 0.6610611 73.19267944 0.65071106 72.35784912 C0.61992007 69.69039594 0.60285534 67.02304296 0.5859375 64.35546875 C0.56722256 62.50172567 0.5476489 60.64799108 0.5272522 58.79426575 C0.47595942 53.9232382 0.43631839 49.05218305 0.39910889 44.18103027 C0.35905138 39.20720607 0.30796699 34.23349645 0.2578125 29.25976562 C0.16108699 19.50659094 0.07667136 9.75335151 0 0 Z " fill="#FDFDFC" transform="translate(1222,476)"/>
<path d="M0 0 C4.40479587 3.67197652 7.36123904 7.85972758 10.1875 12.8125 C10.785625 13.84375 11.38375 14.875 12 15.9375 C17.1041722 28.29496953 14.1875 50.94536813 14.1875 59.8125 C-10.8925 59.8125 -35.9725 59.8125 -61.8125 59.8125 C-61.8125 15.1681582 -61.8125 15.1681582 -49.12109375 2.06640625 C-35.61639993 -10.49828568 -14.65227172 -10.50079473 0 0 Z " fill="#FAFCFC" transform="translate(1143.8125,861.1875)"/>
<path d="M0 0 C12.35379379 9.88711219 15.7432688 21.80192107 19 37 C-14 37 -47 37 -81 37 C-81 23.97024121 -76.57364602 14.75984223 -68 5 C-49.28643018 -12.94787547 -21.19623421 -15.98699021 0 0 Z " fill="#FBFCFC" transform="translate(1325,1415)"/>
<path d="M0 0 C95.37 0 190.74 0 289 0 C289 8.58 289 17.16 289 26 C193.63 26 98.26 26 0 26 C0 17.42 0 8.84 0 0 Z M134 1 C134 1.66 134 2.32 134 3 C133.38543945 3.16145508 132.77087891 3.32291016 132.13769531 3.48925781 C125.87208091 5.23674508 120.42975045 7.60877218 114.75 10.75 C113.10231617 11.64201855 111.45387079 12.53263174 109.8046875 13.421875 C108.99870117 13.85822266 108.19271484 14.29457031 107.36230469 14.74414062 C102.80352411 17.1677007 98.14540232 19.38973745 93.4921875 21.625 C90.88584476 22.75572571 90.88584476 22.75572571 90 25 C155.34 25 220.68 25 288 25 C288 17.08 288 9.16 288 1 C237.18 1 186.36 1 134 1 Z " fill="#CDCDCD" transform="translate(992,708)"/>
<path d="M0 0 C5.08474848 5.36723451 7.55507095 11.1644786 7.75 18.5625 C7.41339989 25.85550243 5.33147404 30.96568892 0.25 36.375 C-0.41 36.375 -1.07 36.375 -1.75 36.375 C-1.72905273 37.03508057 -1.70810547 37.69516113 -1.68652344 38.37524414 C-1.60284607 41.39583818 -1.55117771 44.41618759 -1.5 47.4375 C-1.44972656 48.99500977 -1.44972656 48.99500977 -1.3984375 50.58398438 C-1.315579 57.10909143 -1.79577604 61.10270139 -5.75 66.375 C-10.44661775 69.68398069 -14.19699067 69.90385803 -19.75 69.375 C-23.87305791 67.78200035 -25.78561403 65.38538966 -27.91601562 61.54858398 C-29.84183354 56.52939286 -29.17736336 50.85112372 -29.0625 45.55664062 C-29.11494462 39.21521255 -30.17712293 35.90782228 -34.30493164 31.07495117 C-38.42520744 26.22793641 -38.23782143 20.74467438 -38.12109375 14.66796875 C-37.4518936 8.72969794 -35.15309633 4.62305786 -30.8125 0.5625 C-20.02096884 -7.93991849 -11.301892 -6.67839073 0 0 Z " fill="#F9FBFB" transform="translate(1135.75,966.625)"/>
<path d="M0 0 C0.33 0 0.66 0 1 0 C1.95982903 4.82821644 2.14599094 9.52120481 2.1328125 14.42578125 C2.13376923 15.21397751 2.13472595 16.00217377 2.13571167 16.81425476 C2.13638879 18.46902548 2.13456732 20.12379892 2.13037109 21.77856445 C2.12498021 24.32183698 2.13035017 26.86493578 2.13671875 29.40820312 C2.13605859 31.01822956 2.13477871 32.62825588 2.1328125 34.23828125 C2.13483673 35.00175369 2.13686096 35.76522614 2.13894653 36.55183411 C2.11497542 41.88502458 2.11497542 41.88502458 1 43 C-1.35313555 43.07271741 -3.70833668 43.08370868 -6.0625 43.0625 C-7.35285156 43.05347656 -8.64320312 43.04445313 -9.97265625 43.03515625 C-10.97167969 43.02355469 -11.97070312 43.01195312 -13 43 C-13 42.67 -13 42.34 -13 42 C-9.04 42 -5.08 42 -1 42 C-1.00523682 41.01193359 -1.01047363 40.02386719 -1.01586914 39.00585938 C-1.03409321 35.3082776 -1.0454951 31.61069972 -1.05493164 27.91308594 C-1.05993231 26.31867808 -1.06673501 24.72427475 -1.07543945 23.12988281 C-1.0876933 20.82616046 -1.0932711 18.52249922 -1.09765625 16.21875 C-1.10281754 15.51633179 -1.10797882 14.81391357 -1.11329651 14.09020996 C-1.11382708 9.31279059 -0.67025518 4.73121306 0 0 Z " fill="#5B7487" transform="translate(1052,879)"/>
<path d="M0 0 C0.73404053 -0.00515625 1.46808105 -0.0103125 2.22436523 -0.015625 C5.96680285 0.03319888 7.68862509 0.18825006 10.875 2.3125 C9.68003906 2.37308594 8.48507812 2.43367187 7.25390625 2.49609375 C-2.57812664 2.96270588 -2.57812664 2.96270588 -12.375 3.875 C-15.67152761 4.25959489 -18.81139174 4.39746431 -22.125 4.3125 C-22.125 3.9825 -22.125 3.6525 -22.125 3.3125 C-14.66611318 1.13320785 -7.74682431 0.01328929 0 0 Z " fill="#486074" transform="translate(1120.125,822.6875)"/>
<path d="M0 0 C0.33 0.99 0.66 1.98 1 3 C-3.34125735 10.03232916 -9.74429706 16.62684436 -16 22 C-16.66 22 -17.32 22 -18 22 C-18 21.34 -18 20.68 -18 20 C-16.34211215 18.65576661 -14.67423683 17.32381517 -13 16 C-12.443125 15.2575 -11.88625 14.515 -11.3125 13.75 C-10.879375 13.1725 -10.44625 12.595 -10 12 C-9.34 12 -8.68 12 -8 12 C-8 11.34 -8 10.68 -8 10 C-7.34 10 -6.68 10 -6 10 C-5.62875 8.9171875 -5.62875 8.9171875 -5.25 7.8125 C-3.89016326 4.75286734 -2.17082246 2.5326262 0 0 Z " fill="#1E3648" transform="translate(1198,1041)"/>
<path d="M0 0 C0.99 0.33 1.98 0.66 3 1 C-1.62 5.62 -6.24 10.24 -11 15 C-11.66 14.67 -12.32 14.34 -13 14 C-8.83295817 9.14256071 -4.58155004 4.46980492 0 0 Z " fill="#152C3E" transform="translate(1237,1393)"/>
<path d="M0 0 C0.66 0.33 1.32 0.66 2 1 C1.0479279 2.00596297 0.08812654 3.00461563 -0.875 4 C-1.40867187 4.556875 -1.94234375 5.11375 -2.4921875 5.6875 C-4 7 -4 7 -6 7 C-6.226875 7.53625 -6.45375 8.0725 -6.6875 8.625 C-8.43382056 11.78500863 -10.6402849 14.2676983 -13 17 C-13 12.26337145 -10.02151343 9.48031157 -7 6 C-4.75835278 3.87468577 -2.4338731 1.90101331 0 0 Z " fill="#DCEAEF" transform="translate(1100,859)"/>
<path d="M0 0 C0.33 0 0.66 0 1 0 C1 1.65 1 3.3 1 5 C-4.61 5.66 -10.22 6.32 -16 7 C-16 6.34 -16 5.68 -16 5 C-12.43089228 3.57235691 -9.55684036 2.90272385 -5.75 3.0625 C-4.5125 3.041875 -3.275 3.02125 -2 3 C-1.34 2.01 -0.68 1.02 0 0 Z " fill="#37546D" transform="translate(1123,849)"/>
<path d="M0 0 C0.33 0.99 0.66 1.98 1 3 C0.3503125 3.5878125 0.3503125 3.5878125 -0.3125 4.1875 C-2.27038945 6.2904183 -3.57008483 8.51319101 -5 11 C-5.99 12.485 -5.99 12.485 -7 14 C-7.66 14 -8.32 14 -9 14 C-7.65070536 10.16336928 -5.92248975 7.34827431 -3.375 4.1875 C-2.42753906 3.00220703 -2.42753906 3.00220703 -1.4609375 1.79296875 C-0.97882813 1.20128906 -0.49671875 0.60960937 0 0 Z " fill="#4B647A" transform="translate(1070,844)"/>
<path d="M0 0 C1.10546875 1.73828125 1.10546875 1.73828125 2 4 C1.42578125 6.10546875 1.42578125 6.10546875 0.3125 8.1875 C-0.21923828 9.22970703 -0.21923828 9.22970703 -0.76171875 10.29296875 C-2 12 -2 12 -5 13 C-4.54803755 11.39402675 -4.08817673 9.79027492 -3.625 8.1875 C-3.36976562 7.29417969 -3.11453125 6.40085937 -2.8515625 5.48046875 C-2 3 -2 3 0 0 Z " fill="#446076" transform="translate(1060,858)"/>
<path d="M0 0 C0.66 0 1.32 0 2 0 C1.71382812 0.70511719 1.42765625 1.41023438 1.1328125 2.13671875 C-0.00476831 5.01205232 -1.07392356 7.90452186 -2.125 10.8125 C-2.47820312 11.78832031 -2.83140625 12.76414062 -3.1953125 13.76953125 C-3.46085937 14.50558594 -3.72640625 15.24164062 -4 16 C-5.109375 14.28515625 -5.109375 14.28515625 -6 12 C-5.390625 9.74609375 -5.390625 9.74609375 -4.25 7.4375 C-3.88390625 6.67308594 -3.5178125 5.90867187 -3.140625 5.12109375 C-2 3 -2 3 0 0 Z " fill="#1D3342" transform="translate(1051,1427)"/>
<path d="M0 0 C0.66 0.33 1.32 0.66 2 1 C-0.20964647 4.75639899 -2.45035914 8.46340139 -5 12 C-5.66 12 -6.32 12 -7 12 C-5.63855967 6.80177328 -3.53269829 3.90456127 0 0 Z " fill="#3E5B72" transform="translate(1031,925)"/>
<path d="M0 0 C0 3 0 3 -1.96875 5.04296875 C-2.8040625 5.75066406 -3.639375 6.45835938 -4.5 7.1875 C-5.3353125 7.90292969 -6.170625 8.61835937 -7.03125 9.35546875 C-7.6809375 9.89816406 -8.330625 10.44085937 -9 11 C-9.66 10.67 -10.32 10.34 -11 10 C-9.73232923 8.70522938 -8.46073776 7.41429661 -7.1875 6.125 C-6.47980469 5.40570312 -5.77210938 4.68640625 -5.04296875 3.9453125 C-3 2 -3 2 0 0 Z " fill="#243D4F" transform="translate(844,1394)"/>
<path d="M0 0 C0.99 0.33 1.98 0.66 3 1 C0.11593757 4.40843742 -1.3708265 5.86591384 -5.8125 6.8125 C-7.3903125 6.9053125 -7.3903125 6.9053125 -9 7 C-7.33784732 5.66104368 -5.67036393 4.32869858 -4 3 C-3.29875 2.401875 -2.5975 1.80375 -1.875 1.1875 C-1.25625 0.795625 -0.6375 0.40375 0 0 Z " fill="#183141" transform="translate(856,1385)"/>
<path d="M0 0 C0.66 0.33 1.32 0.66 2 1 C1.21625 1.721875 0.4325 2.44375 -0.375 3.1875 C-2.84412438 5.83299041 -3.93260278 7.60373611 -5 11 C-5.33 11 -5.66 11 -6 11 C-6.375 7.75 -6.375 7.75 -6 4 C-3 1.5625 -3 1.5625 0 0 Z " fill="#21374A" transform="translate(638,477)"/>
<path d="M0 0 C2.31 0 4.62 0 7 0 C7 0.66 7 1.32 7 2 C8.32 2 9.64 2 11 2 C11 2.66 11 3.32 11 4 C12.32 4 13.64 4 15 4 C14.67 4.99 14.34 5.98 14 7 C9.33333333 4.66666667 4.66666667 2.33333333 0 0 Z " fill="#2C4251" transform="translate(1309,1407)"/>
<path d="M0 0 C0.66 0.66 1.32 1.32 2 2 C0.90716423 3.03295436 -0.19970579 4.05107835 -1.3125 5.0625 C-1.92738281 5.63097656 -2.54226563 6.19945312 -3.17578125 6.78515625 C-3.77777344 7.18605469 -4.37976563 7.58695313 -5 8 C-5.99 7.67 -6.98 7.34 -8 7 C-5.36 4.69 -2.72 2.38 0 0 Z " fill="#233C4E" transform="translate(752,1387)"/>
<path d="M0 0 C0.66 0.33 1.32 0.66 2 1 C0.42466914 1.86883706 -1.16064509 2.71959068 -2.75 3.5625 C-3.63171875 4.03816406 -4.5134375 4.51382812 -5.421875 5.00390625 C-8.20701188 6.07998186 -9.26980214 6.06528748 -12 5 C-10.04578965 4.13644222 -8.08648653 3.28440066 -6.125 2.4375 C-5.03445313 1.96183594 -3.94390625 1.48617188 -2.8203125 0.99609375 C-1.88960937 0.66738281 -0.95890625 0.33867188 0 0 Z " fill="#2D4353" transform="translate(1464,1379)"/>
<path d="M0 0 C-1.6188996 1.03048037 -3.24532489 2.04914678 -4.875 3.0625 C-5.77992187 3.63097656 -6.68484375 4.19945312 -7.6171875 4.78515625 C-8.40351562 5.18605469 -9.18984375 5.58695313 -10 6 C-10.66 5.67 -11.32 5.34 -12 5 C-4.28571429 -1.42857143 -4.28571429 -1.42857143 0 0 Z " fill="#20384E" transform="translate(1163,1077)"/>
<path d="M0 0 C0.33 0.99 0.66 1.98 1 3 C-1.75 5.0625 -1.75 5.0625 -5 7 C-6.32 6.67 -7.64 6.34 -9 6 C-6.03 4.02 -3.06 2.04 0 0 Z " fill="#1B3446" transform="translate(944,1507)"/>
<path d="M0 0 C0.66 0.33 1.32 0.66 2 1 C0.68 4.3 -0.64 7.6 -2 11 C-2.33 11 -2.66 11 -3 11 C-2.88590407 9.54077307 -2.75834456 8.08259402 -2.625 6.625 C-2.55539062 5.81289062 -2.48578125 5.00078125 -2.4140625 4.1640625 C-2 2 -2 2 0 0 Z " fill="#1F3547" transform="translate(479,1514)"/>
<path d="M0 0 C0.66 0 1.32 0 2 0 C1.55123384 1.64846769 1.09069512 3.29373455 0.625 4.9375 C0.36976562 5.85402344 0.11453125 6.77054688 -0.1484375 7.71484375 C-1 10 -1 10 -3 11 C-3.39253254 6.55129785 -2.15305957 3.85756507 0 0 Z " fill="#193243" transform="translate(1246,1433)"/>
<path d="M0 0 C0.99 0.33 1.98 0.66 3 1 C-0.465 3.97 -0.465 3.97 -4 7 C-4.66 5.68 -5.32 4.36 -6 3 C-5.195625 2.87625 -4.39125 2.7525 -3.5625 2.625 C-2.716875 2.41875 -1.87125 2.2125 -1 2 C-0.67 1.34 -0.34 0.68 0 0 Z " fill="#0F2433" transform="translate(953,1420)"/>
<path d="M0 0 C0.33 0.99 0.66 1.98 1 3 C-0.21484375 5.04296875 -0.21484375 5.04296875 -1.9375 7.1875 C-2.50339844 7.90292969 -3.06929687 8.61835937 -3.65234375 9.35546875 C-4.09707031 9.89816406 -4.54179688 10.44085937 -5 11 C-5.33 10.01 -5.66 9.02 -6 8 C-4.78515625 5.95703125 -4.78515625 5.95703125 -3.0625 3.8125 C-2.49660156 3.09707031 -1.93070313 2.38164063 -1.34765625 1.64453125 C-0.90292969 1.10183594 -0.45820312 0.55914063 0 0 Z " fill="#263D4F" transform="translate(1198,1041)"/>
<path d="M0 0 C-3.12432397 2.52349243 -6.38060496 4.27256146 -10 6 C-7.82304683 0.97626191 -5.41372848 -0.29263397 0 0 Z " fill="#39546B" transform="translate(1106,856)"/>
<path d="M0 0 C0.99 0 1.98 0 3 0 C2.4140625 6.15234375 2.4140625 6.15234375 2 8 C1.01 8.495 1.01 8.495 0 9 C0 6.03 0 3.06 0 0 Z " fill="#223A4A" transform="translate(1407,1448)"/>
<path d="M0 0 C0.33 1.32 0.66 2.64 1 4 C-0.9375 6.25 -0.9375 6.25 -3 8 C-3.66 7.67 -4.32 7.34 -5 7 C-3.35 4.69 -1.7 2.38 0 0 Z " fill="#2A4252" transform="translate(832,1405)"/>
<path d="M0 0 C0.66 0.33 1.32 0.66 2 1 C0.02 2.98 -1.96 4.96 -4 7 C-4.99 6.67 -5.98 6.34 -7 6 C-4.69 4.02 -2.38 2.04 0 0 Z " fill="#D6E3E9" transform="translate(1109,964)"/>
<path d="M0 0 C-3.00617269 3.00617269 -5.82381598 2.59585316 -10 3 C-4.37755102 -1.45918367 -4.37755102 -1.45918367 0 0 Z " fill="#466075" transform="translate(1099,828)"/>
<path d="M0 0 C-5.29230769 4.06153846 -5.29230769 4.06153846 -8.875 3.75 C-9.57625 3.5025 -10.2775 3.255 -11 3 C-3.71428571 -1.85714286 -3.71428571 -1.85714286 0 0 Z " fill="#344958" transform="translate(765,422)"/>
</svg>
