<?xml version="1.0" encoding="UTF-8" standalone="no"?>
<svg
   version="1.1"
   width="1759.2135"
   height="561.67657"
   id="svg55"
   xml:space="preserve"
   xmlns="http://www.w3.org/2000/svg"
   xmlns:svg="http://www.w3.org/2000/svg"><defs
     id="defs55" /><path
     d="M -2.7753906e-6,-2.5195312e-6 H 1759.2135 V 561.67657 H -2.7753906e-6 Z"
     fill="#fefefe"
     id="path1"
     style="display:inline;stroke-width:0.48537" /><g
     id="g57"
     transform="translate(129.82146,-1132.652)"><path
       d="m 1553,1390 c 4.5955,3.7276 8.8118,7.8276 13,12 1.1292,1.077 1.1292,1.077 2.2813,2.1758 10.5829,10.8139 16.8749,26.3371 19.4062,41.0742 0.1267,0.7338 0.2533,1.4676 0.3838,2.2236 1.0571,6.5508 1.2631,12.8968 0.9287,19.5264 -0.031,1.0325 -0.062,2.0651 -0.094,3.1289 -1.2301,25.0613 -12.3396,47.5856 -30.754,64.4844 -15.0915,12.0192 -35.7885,19.9115 -55.1523,20.3867 -1.1498,0.062 -2.2997,0.1238 -3.4844,0.1875 -15.4467,0.4884 -30.4477,-2.7586 -44.5156,-9.1875 -1.3767,-0.6265 -1.3767,-0.6265 -2.7812,-1.2656 -20.5453,-10.2726 -34.914,-29.2712 -42.1563,-50.7344 -7.7047,-23.8193 -4.6483,-52.9106 6.625,-75 10.9135,-19.7385 28.9419,-34.1055 50.3125,-41 1.1537,-0.3932 2.3074,-0.7863 3.4961,-1.1914 26.9404,-8.0457 59.5129,-3.1014 82.5039,13.1914 z"
       fill="#082941"
       id="path7" /><path
       d="m 528,1318 h 38 c 10.52634,22.6609 20.90182,45.3766 31.00104,68.231 2.3656,5.3493 4.74948,10.6902 7.14349,16.0268 l 1.05162,2.3444 c 0.70543,1.5723 1.41089,3.1447 2.11638,4.717 6.72819,14.9974 13.36225,30.0339 19.94989,45.0935 5.1369,11.7368 10.35203,23.4338 15.67508,35.0873 7.7901,17.0561 15.41454,34.1801 22.75,51.4375 0.33959,0.7939 0.67917,1.5878 1.02905,2.4058 C 669,1548.7632 669,1548.7632 669,1551 h -42 l -5,-13 c -1.04332,-2.5021 -2.10342,-4.9974 -3.19141,-7.4805 l -0.8242,-1.8902 c -0.84632,-1.9401 -1.69628,-3.8786 -2.54689,-5.8168 -0.85371,-1.9491 -1.70653,-3.8987 -2.5576,-5.8489 -0.76872,-1.7611 -1.54015,-3.521 -2.31178,-5.2807 C 608.63906,1507.1523 606.82878,1502.572 605,1498 l -117,-1 -3,9 c -0.59555,1.5133 -1.21209,3.019 -1.86939,4.5066 -0.33367,0.7608 -0.66734,1.5215 -1.01112,2.3053 -0.35009,0.7878 -0.70019,1.5756 -1.0609,2.3873 -0.36834,0.8387 -0.73668,1.6774 -1.11619,2.5415 -1.16455,2.6506 -2.33425,5.2989 -3.5049,7.9468 -1.17375,2.6588 -2.34627,5.3182 -3.51561,7.979 -0.7241,1.6473 -1.45074,3.2935 -2.18033,4.9384 -0.33052,0.7513 -0.66104,1.5026 -1.00157,2.2767 l -0.87428,1.9768 c -1.07826,2.6674 -1.9559,5.4122 -2.86571,8.1416 h -41 c 1.82021,-5.4606 3.53674,-10.4931 5.82031,-15.7031 0.25997,-0.5964 0.51994,-1.1928 0.78778,-1.8073 0.83544,-1.9148 1.67611,-3.8272 2.51691,-5.7396 0.87958,-2.0117 1.75789,-4.0239 2.63614,-6.0361 0.58497,-1.34 1.1704,-2.6798 1.75629,-4.0195 2.48934,-5.6951 4.92713,-11.4114 7.35757,-17.1319 2.93163,-6.8761 6.00747,-13.6563 9.20312,-20.4141 2.44067,-5.2169 4.73637,-10.4978 7.04688,-15.7734 5.66429,-12.929 11.43239,-25.8104 17.21777,-38.6855 2.72322,-6.0613 5.43965,-12.1257 8.15723,-18.1895 0.54587,-1.2175 1.09177,-2.4351 1.63769,-3.6526 2.63603,-5.8791 5.27057,-11.7589 7.90137,-17.6404 6.2553,-13.9791 12.54232,-27.9436 18.85077,-41.8988 0.86113,-1.905 1.72201,-3.8101 2.58264,-5.7153 1.21015,-2.6785 2.4214,-5.3565 3.633,-8.0343 l 1.10304,-2.4424 1.0266,-2.2668 0.89055,-1.969 c 0.9199,-1.9784 1.89863,-3.929 2.87434,-5.8804 z"
       fill="#092940"
       id="path8" /><path
       d="m 1325.9375,1378.6875 c 0.6797,0.2627 1.3593,0.5255 2.0596,0.7961 21.0396,8.3956 36.0279,23.9149 45.166,44.4925 7.3948,17.8829 6.8369,35.6163 6.8369,55.0239 -45.21,0 -90.42,0 -137,0 3.6331,10.1149 3.6331,10.1149 8.5625,19 0.5582,0.8456 1.1163,1.6913 1.6914,2.5625 7.8888,11.0125 19.0454,17.8751 32.2188,20.8984 18.5236,2.8309 36.6217,-0.5091 52.5273,-10.4609 2.8864,-2.1537 5.5201,-4.3896 8,-7 3.735,1.5759 6.2528,3.9222 9.1875,6.6875 4.7444,4.3937 9.6306,8.4485 14.8125,12.3125 -4.4474,10.9301 -19.1302,19.0552 -29.4048,23.4143 -27.2426,11.0414 -55.4525,11.8575 -83.0952,1.3357 -20.3853,-9.3996 -37.9881,-25.6878 -46.3184,-46.8267 -7.6412,-21.4258 -9.2465,-50.6218 -0.1816,-71.9233 0.2623,-0.6284 0.5247,-1.2568 0.7949,-1.9043 9.1639,-21.2944 25.7215,-38.0761 47.1582,-46.9668 1.0055,-0.3725 2.011,-0.7451 3.0469,-1.1289 1.2323,-0.4654 2.4647,-0.9307 3.7344,-1.4102 18.7175,-6.4137 41.7138,-6.0923 60.2031,1.0977 z"
       fill="#092941"
       id="path9" /><path
       d="m 1008,1312 c 12.21,0 24.42,0 37,0 0,29.04 0,58.08 0,88 0.66,0 1.32,0 2,0 0.263,-0.5827 0.5259,-1.1653 0.7969,-1.7656 5.7564,-10.6905 18.7593,-17.0315 29.8906,-20.6094 2.0971,-0.5683 4.2012,-1.112 6.3125,-1.625 1.2646,-0.3364 1.2646,-0.3364 2.5547,-0.6797 17.1425,-3.8984 36.8935,-2.1233 52.5703,6.0547 1.3127,0.8431 2.6053,1.7184 3.875,2.625 1.0944,0.7174 1.0944,0.7174 2.2109,1.4492 15.0808,10.6286 21.1697,27.0955 24.334,44.5579 0.7066,5.1565 0.5861,10.3332 0.5686,15.5278 2e-4,1.1422 3e-4,2.2844 5e-4,3.4612 -7e-4,3.7604 -0.01,7.5208 -0.016,11.2812 0,2.6132 0,5.2264 0,7.8395 0,6.1657 -0.011,12.3314 -0.021,18.4971 -0.011,7.023 -0.017,14.046 -0.022,21.069 -0.01,14.4391 -0.029,28.8781 -0.05,43.3171 -12.21,0 -24.42,0 -37,0 -0.01,-3.1628 -0.019,-6.3256 -0.028,-9.5842 -0.034,-10.4974 -0.09,-20.9946 -0.1556,-31.4918 -0.039,-6.359 -0.072,-12.7179 -0.087,-19.0771 -0.015,-6.1469 -0.05,-12.2935 -0.097,-18.4403 -0.015,-2.3348 -0.023,-4.6698 -0.024,-7.0047 0.3754,-24.3777 0.3754,-24.3777 -10.6085,-45.4019 -2.8349,-2.3749 -5.7291,-4.2798 -9,-6 -0.9408,-0.5141 -0.9408,-0.5141 -1.9006,-1.0386 -6.1798,-3.1054 -11.5583,-3.5929 -18.4119,-3.4614 -1.5251,0.02 -1.5251,0.02 -3.0811,0.041 -12.6748,0.3493 -22.1411,3.8148 -31.6064,12.459 -9.2853,10.4071 -12.1228,22.4665 -12.2053,36.0227 -0.01,1.0053 -0.02,2.0107 -0.03,3.0465 -0.032,3.3168 -0.056,6.6335 -0.081,9.9503 -0.021,2.3022 -0.042,4.6043 -0.063,6.9065 -0.055,6.0547 -0.1046,12.1094 -0.1528,18.1642 -0.05,6.1803 -0.106,12.3605 -0.1612,18.5407 -0.1075,12.123 -0.2084,24.246 -0.3066,36.3691 -12.21,0 -24.42,0 -37,0 0,-78.87 0,-157.74 0,-239 z"
       fill="#072840"
       id="path11" /><path
       d="m 903.625,1373.6875 c 0.66863,0 1.33726,0 2.02615,0.01 22.15707,0.1149 44.49777,5.4347 60.8093,21.4347 2.55713,2.5847 5.06013,5.2119 7.53955,7.8713 -4.24812,5.1293 -8.72729,9.7425 -13.625,14.25 -0.65484,0.611 -1.30969,1.222 -1.98438,1.8516 -3.02155,2.8013 -6.00878,5.5294 -9.39062,7.8984 -0.59684,-0.5569 -1.19367,-1.1137 -1.80859,-1.6875 C 930.82522,1410.9161 914.32976,1407.6424 893,1409 c -12.87404,2.2575 -25.02446,10.2759 -32.5625,20.875 -9.37663,13.8666 -11.30518,28.6817 -9.4375,45.125 3.07545,14.7885 9.91866,27.6551 22.5625,36.375 1.46556,0.8976 2.94436,1.7741 4.4375,2.625 0.65742,0.3893 1.31484,0.7786 1.99219,1.1797 12.61148,6.9388 28.92571,6.2397 42.55468,2.9258 9.52638,-3.0498 18.62226,-7.6447 25.45313,-15.1055 0.33,-0.66 0.66,-1.32 1,-2 3.89019,1.604 6.62601,4.2649 9.625,7.125 5.2441,4.9133 10.68431,9.4811 16.375,13.875 -2.75563,6.5133 -7.70479,10.9514 -13.375,14.9375 -0.90867,0.6412 -0.90867,0.6412 -1.83569,1.2954 -10.30783,7.0553 -21.71157,11.6538 -33.78931,14.7671 -1.24523,0.3384 -1.24523,0.3384 -2.51563,0.6836 -24.35407,5.5524 -50.68698,-0.01 -71.70312,-12.832 -4.51241,-3.0041 -8.69812,-6.2896 -12.78125,-9.8516 -0.61359,-0.5298 -1.22719,-1.0596 -1.85938,-1.6055 -15.3732,-14.2801 -24.55883,-35.4434 -25.58984,-56.2109 -0.69878,-26.8857 4.91397,-51.6677 23.98438,-71.7813 13.17948,-12.8452 26.71115,-20.84 44.46484,-25.4023 0.64936,-0.1862 1.29873,-0.3724 1.96777,-0.5642 7.15217,-1.8713 14.30334,-1.7803 21.65723,-1.7483 z"
       fill="#082941"
       id="path13" /><path
       d="m 1528,1416 c 12.3664,9.5384 20.3345,21.5285 23,37 1.7404,17.5078 -0.9182,35.1292 -11.8125,49.4375 -8.7846,10.1489 -20.8347,17.6208 -34.4626,18.7512 -2.3909,0.078 -4.7704,0.084 -7.1624,0.061 -1.1921,0.012 -1.1921,0.012 -2.4082,0.023 -12.8401,-0.042 -24.8505,-4.2998 -34.2832,-13.2422 -12.8305,-13.9287 -17.5535,-29.3609 -17.1836,-47.9062 0.6911,-15.5037 7.0452,-29.4635 18.3125,-40.125 7.1665,-6.1927 15.0494,-9.272 24,-12 0.6523,-0.2037 1.3045,-0.4073 1.9766,-0.6172 14.0063,-2.6498 28.3439,0.6972 40.0234,8.6172 z"
       fill="#fcfdfd"
       id="path15" /><path
       d="m 795,1374 c 0,12.54 0,25.08 0,38 -4.62,0.33 -9.24,0.66 -14,1 -3.03001,0.6095 -5.77248,1.2138 -8.6875,2.125 -1.06916,0.3271 -1.06916,0.3271 -2.15991,0.6609 -6.41337,2.0851 -11.84553,5.0248 -17.15259,9.2141 -0.72574,0.5723 -1.45148,1.1447 -2.19922,1.7344 -8.82502,7.8669 -14.01891,19.8999 -14.99559,31.5992 -0.0878,2.4712 -0.1178,4.936 -0.12404,7.4088 -0.0151,1.3919 -0.0151,1.3919 -0.0304,2.8119 -0.0306,3.0353 -0.0478,6.0705 -0.0648,9.1059 -0.0187,2.117 -0.0383,4.2341 -0.0587,6.3511 -0.0512,5.5483 -0.0909,11.0967 -0.12814,16.6451 -0.0401,5.6712 -0.0912,11.3424 -0.1413,17.0135 -0.0966,11.11 -0.18002,22.22 -0.25781,33.3301 -12.21,0 -24.42,0 -37,0 0,-57.09 0,-114.18 0,-173 11.88,0 23.76,0 36,0 0,10.23 0,20.46 0,31 0.66,0 1.32,0 2,0 0.0838,-0.7051 0.16758,-1.4102 0.25391,-2.1367 2.45143,-9.4079 11.82595,-17.836 19.74609,-22.8633 12.67843,-7.2094 24.29652,-10 39,-10 z"
       fill="#092940"
       id="path16" /><path
       d="m 546,1363 c 2.83751,3.4137 4.59204,7.1663 6.37891,11.1914 0.48655,1.082 0.48655,1.082 0.98294,2.1858 1.07288,2.3925 2.13725,4.7886 3.20065,7.1853 0.368,0.8251 0.73599,1.6502 1.11514,2.5002 8.11111,18.1958 15.8034,36.565 23.4196,54.9723 1.5589,3.7615 3.13192,7.515 4.75286,11.2502 0.2835,0.6534 0.56699,1.3069 0.85908,1.9802 0.75312,1.7283 1.51162,3.4542 2.27056,5.1799 C 590,1462 590,1462 590,1464 c -28.71,0 -57.42,0 -87,0 1.95078,-5.8523 3.93273,-11.4856 6.33594,-17.1367 0.31562,-0.7494 0.63123,-1.4988 0.95642,-2.2708 1.02401,-2.4282 2.05311,-4.8542 3.08264,-7.28 0.71904,-1.7005 1.43795,-3.4012 2.15674,-5.1018 5.91095,-13.9673 11.91742,-27.892 17.98095,-41.7937 1.49994,-3.446 2.99099,-6.8957 4.4795,-10.3467 0.4668,-1.0803 0.9336,-2.1606 1.41455,-3.2737 0.87242,-2.0193 1.74327,-4.0393 2.6123,-6.06 0.38044,-0.8786 0.76087,-1.7572 1.15283,-2.6624 0.33097,-0.7674 0.66194,-1.5348 1.00293,-2.3254 C 545,1364 545,1364 546,1363 Z"
       fill="#fbfcfb"
       id="path22" /><path
       d="m 1325,1415 c 12.3538,9.8871 15.7433,21.8019 19,37 -33,0 -66,0 -100,0 0,-13.0298 4.4264,-22.2402 13,-32 18.7136,-17.9479 46.8038,-20.987 68,-5 z"
       fill="#fbfcfc"
       id="path25" /></g><g
     id="g59"
     transform="translate(-92.729645,-557.72833)"><rect
       style="fill:#ffffff;fill-opacity:1;stroke-width:0.551357"
       id="rect45"
       width="205.69914"
       height="271.27139"
       x="311.77954"
       y="655.00604" /><path
       fill="#051f34"
       d="m 353.68043,605.38716 c 0,16.37531 0,32.75063 0,49.62217 -13.82805,0 -27.65609,0 -41.90317,0 0,12.9183 0,25.83661 0,39.14638 -3.35467,0.65956 -6.70933,1.31912 -10.16565,1.99867 -13.73006,2.73626 -27.19157,5.93322 -40.55923,10.13119 -0.35003,0.10981 -0.70005,0.21962 -1.06069,0.33275 -17.56288,5.52445 -34.30656,12.37874 -50.76691,20.61883 -0.61185,0.30588 -1.2237,0.61177 -1.8541,0.92692 -0.47983,0.23996 -0.95967,0.47992 -1.45404,0.72715 -0.0988,15.70442 -0.024,31.36463 1.51703,47.00807 0.13714,1.51249 0.24237,3.02386 0.33734,4.53955 1.78478,27.63711 7.19712,55.41502 15.92313,81.6892 0.89445,2.77449 1.66072,5.58816 2.4375,8.39743 0.74587,2.46426 1.76694,4.80639 2.77267,7.17384 0.67402,1.60158 1.31582,3.2111 1.94402,4.83111 6.67008,17.13847 14.5708,33.86952 24.69047,49.26034 0.24823,0.38282 0.49645,0.76563 0.7522,1.16005 6.49792,10.01857 13.5999,19.49181 21.3021,28.61325 0.55496,0.66334 1.10991,1.32669 1.66484,1.99005 6.95771,8.26482 14.35874,16.49534 22.58628,23.51884 1.27736,1.09914 2.5196,2.23296 3.76473,3.36845 2.89427,2.60837 5.89092,5.06925 8.9251,7.51225 0.63126,0.51664 1.26229,1.03355 1.89313,1.55069 5.08302,4.14516 10.33818,7.97896 15.75031,11.68186 0.43621,0.2999 0.87242,0.5997 1.32185,0.9086 11.96636,8.1977 24.42066,15.5319 37.27317,22.2485 0.84035,0.441 0.84035,0.441 1.69768,0.8911 10.56059,5.5103 21.43107,10.1378 32.48648,14.5469 -1.46124,1.692 -3.19207,2.5708 -5.15175,3.6139 -0.34869,0.1863 -0.69739,0.3725 -1.05665,0.5645 -1.14484,0.6095 -2.29229,1.2141 -3.44036,1.8176 -0.59184,0.3124 -0.59184,0.3124 -1.19564,0.6311 -10.28993,5.426 -20.68497,10.5611 -31.43783,15.0136 -0.61571,0.2572 -1.23143,0.5144 -1.86581,0.7794 -0.87067,0.352 -0.87067,0.352 -1.75893,0.711 -0.50582,0.2056 -1.01164,0.4112 -1.53279,0.623 -3.88221,1.2034 -6.20299,1.3033 -9.92511,-0.3839 -0.35396,-0.1571 -0.70793,-0.3142 -1.07262,-0.4761 -1.14422,-0.511 -2.28091,-1.0367 -3.41792,-1.5635 -0.79539,-0.36 -1.59111,-0.7192 -2.38716,-1.0777 -1.95194,-0.8825 -3.89766,-1.7778 -5.84111,-2.6789 -1.44661,-0.6695 -2.89744,-1.3296 -4.34742,-1.9917 -6.97415,-3.222 -13.70368,-6.8644 -20.40238,-10.6201 -0.49796,-0.2775 -0.99592,-0.555 -1.50897,-0.8408 -6.6457,-3.7088 -13.12488,-7.5966 -19.44261,-11.8404 -0.41623,-0.2793 -0.83245,-0.5585 -1.26129,-0.8462 -16.1992,-10.9035 -16.1992,-10.9035 -23.64241,-17.1462 -1.20931,-1.0108 -2.42691,-2.0044 -3.65705,-2.9894 -4.0936,-3.2817 -8.06875,-6.6298 -11.90372,-10.2109 -1.23951,-1.1523 -2.49814,-2.2684 -3.78197,-3.3706 -1.92395,-1.664 -3.70113,-3.4481 -5.48342,-5.2616 -1.02522,-1.0418 -1.02522,-1.0418 -2.40788,-2.0783 -1.56405,-1.28334 -2.77954,-2.72417 -4.08995,-4.26012 -1.23883,-1.39458 -2.54229,-2.70042 -3.87027,-4.01026 -1.96881,-1.94802 -3.84049,-3.93324 -5.64065,-6.03694 -1.10679,-1.2827 -2.24634,-2.53222 -3.38783,-3.78412 -4.79469,-5.32113 -9.19484,-10.98209 -13.57718,-16.6441 -0.39126,-0.504 -0.39126,-0.504 -0.79042,-1.01818 -19.59292,-25.34071 -34.022,-53.8941 -44.97224,-83.89086 -0.17769,-0.48499 -0.35537,-0.96998 -0.53844,-1.46966 -1.8638,-5.10971 -3.5785,-10.2633 -5.14824,-15.47086 -0.26251,-0.87049 -0.52703,-1.74038 -0.79312,-2.60979 -6.45027,-21.13401 -11.41531,-42.74386 -14.19611,-64.66954 -0.23795,-1.85523 -0.47733,-3.71028 -0.71719,-5.56526 -0.0576,-0.44636 -0.11513,-0.89271 -0.17443,-1.35259 -0.37098,-2.8588 -0.77634,-5.71037 -1.21272,-8.56001 -1.06731,-6.98711 -1.5743,-13.99938 -2.03084,-21.04957 -0.0234,-0.36016 -0.0469,-0.72033 -0.0711,-1.09141 -0.37035,-5.69957 -0.72321,-11.40011 -1.03164,-17.10339 -0.0247,-0.4418 -0.0495,-0.88362 -0.0749,-1.33881 -0.46628,-8.46999 -0.56517,-16.92039 -0.54537,-25.40202 0.001,-0.65384 0.002,-1.30768 0.003,-1.98134 0.0152,-9.91769 0.10531,-19.81547 0.61768,-29.72171 0.0187,-0.37302 0.0374,-0.74603 0.0567,-1.13035 0.12225,-2.4332 0.2523,-4.86582 0.39212,-7.29808 0.0447,-0.77795 0.0883,-1.55597 0.13078,-2.33405 0.0599,-1.07563 0.12661,-2.15086 0.19359,-3.22606 0.0369,-0.61368 0.0738,-1.22735 0.11186,-1.85963 0.61451,-5.06845 0.61451,-5.06845 2.68585,-6.78899 0.57286,-0.30375 1.14571,-0.60749 1.73592,-0.92045 0.31419,-0.17085 0.62839,-0.3417 0.9521,-0.51772 1.03179,-0.55668 2.07223,-1.09431 3.11416,-1.63171 0.72761,-0.38628 1.45477,-0.77343 2.18147,-1.1614 1.85242,-0.9838 3.71322,-1.95026 5.57839,-2.90964 0.9951,-0.51222 1.98831,-1.02813 2.98138,-1.5443 20.55984,-10.65689 42.0834,-19.31158 64.2432,-26.0188 0.97071,-0.29906 1.94134,-0.59842 2.91186,-0.89811 2.69836,-0.82698 5.40443,-1.62507 8.11529,-2.41003 0.56415,-0.16365 1.12829,-0.32729 1.70954,-0.4959 1.82964,-0.52825 3.66078,-1.05094 5.49257,-1.57169 0.5641,-0.16214 1.1282,-0.32428 1.70939,-0.49132 3.17433,-0.89307 6.32423,-1.60299 9.57419,-2.15913 1.80184,-0.32275 3.55733,-0.77385 5.32606,-1.24351 12.32657,-3.14829 24.85138,-5.15284 37.41083,-7.10233 1.44142,-0.22499 2.88171,-0.45691 4.32219,-0.68775 19.22208,-2.99876 38.52398,-3.34045 57.9593,-3.34045 z"
       id="path2"
       style="stroke-width:0.551357" /><path
       fill="#b3b4b4"
       d="m 573.12068,728.33987 c 0.1566,17.8141 -0.41708,35.06015 -2.83599,52.73695 -0.39598,2.90439 -0.76683,5.81151 -1.13119,8.72001 -1.7761,14.10487 -4.14508,27.94261 -7.4261,41.78471 -0.58314,2.47335 -1.09801,4.94545 -1.56362,7.44333 -3.30988,16.77384 -9.43555,33.34368 -15.71368,49.20865 -0.29944,0.7604 -0.29944,0.7604 -0.60494,1.53615 -5.67827,14.30361 -12.17829,28.38511 -20.02493,41.63166 -0.81847,1.39882 -1.6131,2.80952 -2.405,4.22348 -2.53061,4.49883 -5.30694,8.80329 -8.18575,13.08573 -0.23964,0.35803 -0.47929,0.71606 -0.7262,1.08494 -4.06787,6.0734 -8.2651,12.03093 -12.71313,17.83351 -0.26591,0.34871 -0.53181,0.69741 -0.80577,1.05668 -5.05753,6.61154 -10.44724,12.92974 -16.13649,19.00554 -1.42473,1.52267 -2.81234,3.06726 -4.17301,4.64764 -2.21565,2.54359 -4.57901,4.92494 -6.9695,7.30333 -0.41898,0.42112 -0.83796,0.84222 -1.26963,1.27612 -2.30364,2.2997 -4.65512,4.5047 -7.12202,6.628 -1.21712,1.0581 -2.38826,2.1583 -3.55959,3.2665 -3.34384,3.1575 -6.83348,6.0375 -10.47566,8.842 -1.72388,1.3309 -3.38226,2.7281 -5.0376,4.1437 -7.82149,6.5507 -16.41674,12.1435 -24.94892,17.7124 -0.38406,0.2531 -0.76812,0.5062 -1.16383,0.767 -0.98598,0.6476 -1.97699,1.2862 -2.97135,1.9209 -0.52878,0.3397 -1.05757,0.6794 -1.60238,1.0295 -2.37597,1.1521 -3.6671,0.8671 -6.15324,0.036 -0.81703,-0.3269 -1.63165,-0.6599 -2.44449,-0.9971 -0.48677,-0.1975 -0.97353,-0.395 -1.47504,-0.5985 -16.35802,-6.6895 -32.7306,-14.1995 -47.72742,-23.6042 -1.04319,-0.6536 -2.09122,-1.299 -3.13988,-1.9438 -7.74799,-4.7812 -15.28732,-9.8395 -22.64227,-15.2053 -0.54229,-0.3952 -1.08458,-0.7904 -1.64331,-1.1975 -15.11016,-11.17462 -30.74369,-23.9086 -42.40929,-38.71997 -1.2348,-1.52859 -2.54233,-2.95976 -3.88104,-4.39794 -2.71779,-2.96068 -5.1704,-6.08619 -7.57551,-9.30119 -0.74339,-0.98652 -1.49853,-1.96302 -2.25631,-2.93851 -7.69435,-9.97464 -14.29137,-20.73024 -20.5273,-31.66213 -0.31156,-0.54425 -0.31156,-0.54425 -0.62943,-1.09949 -4.82508,-8.50726 -8.81162,-17.57037 -12.52952,-26.60717 -0.65583,-1.59008 -1.32833,-3.1725 -2.00338,-4.75451 -1.2733,-3.04955 -2.38598,-6.14339 -3.47398,-9.26324 -0.58299,-1.61604 -1.22413,-3.18407 -1.90175,-4.76192 -1.03911,-2.52653 -1.34076,-4.82684 -1.51623,-7.5467 4.17361,-2.83248 8.65322,-4.70765 13.29934,-6.60122 1.88869,-0.7729 3.74934,-1.59111 5.60403,-2.44233 4.01114,-1.83934 8.08408,-3.52843 12.15356,-5.23359 5.21492,-2.19349 10.35689,-4.51714 15.46385,-6.95012 3.72354,-1.75287 7.51164,-3.25792 11.37175,-4.68654 3.90255,-1.46346 7.73601,-2.98917 11.5182,-4.74038 2.21003,-0.99674 4.43914,-1.94196 6.67659,-2.87525 0.40956,-0.17333 0.81912,-0.34666 1.2411,-0.52524 1.68696,-0.69844 2.97952,-1.23221 4.82383,-1.23221 0,33.29648 0,66.59295 0,100.89841 13.2822,0 26.5644,0 40.24909,0 0,-4.1848 0,-8.3696 0,-12.68122 1.69691,-4.05602 3.42125,-6.07907 7.16765,-8.27036 1.81132,-0.60377 3.16293,-0.60628 5.0656,-0.58582 0.59915,0.005 1.1983,0.01 1.8156,0.0151 0.45842,0.006 0.91685,0.0128 1.38916,0.0194 -0.006,-0.53323 -0.0116,-1.06645 -0.0175,-1.61584 -0.0202,-2.00996 -0.0327,-4.01991 -0.0431,-6.02994 -0.006,-0.86402 -0.0129,-1.72803 -0.0226,-2.59202 -0.13422,-12.34869 2.21574,-23.27353 10.87773,-32.62378 8.26807,-7.7213 18.02344,-11.68073 29.37056,-11.33082 10.70279,0.58625 19.80854,5.73143 27.04666,13.40057 2.09086,2.48437 3.65442,5.22351 5.1539,8.08945 0.27252,0.50486 0.27252,0.50486 0.55055,1.01992 3.52249,7.0549 3.38978,14.56752 3.27449,22.24047 -0.008,0.9742 -0.0159,1.94841 -0.0226,2.92262 -0.018,2.35709 -0.0464,4.71383 -0.0808,7.07073 0.56744,-0.0164 1.13487,-0.0328 1.71949,-0.0497 0.75211,-0.0132 1.50421,-0.0261 2.25632,-0.0387 0.37309,-0.0118 0.74618,-0.0236 1.13057,-0.0359 2.90894,-0.0363 4.58249,0.49179 6.70258,2.45022 5.34517,6.01837 4.18035,9.40799 4.18035,18.62558 19.10454,0 38.20907,0 57.89253,0 0,-59.86087 0,-119.72175 0,-181.39659 3.82091,-1.09169 7.64182,-2.18338 11.57851,-3.30815 2.87896,-0.92444 5.70864,-1.85302 8.5245,-2.94631 3.322,-1.25067 6.72586,-2.25115 10.11827,-3.29092 1.43026,-0.44025 2.86025,-0.88132 4.29025,-1.32239 0.35145,-0.10826 0.7029,-0.21653 1.065,-0.32807 3.40522,-1.05019 6.80207,-2.12636 10.19327,-3.2209 6.64974,-2.12398 6.64974,-2.12398 9.9173,-2.12398 z"
       id="path3"
       style="stroke-width:0.551357" /><path
       fill="#d5d5d5"
       d="m 353.68043,605.38716 c 16.04728,0 16.04728,0 23.81175,0.48244 0.85579,0.0507 1.71159,0.10137 2.56739,0.15197 9.31967,0.5617 18.55844,1.36912 27.79388,2.75773 2.34483,0.35158 4.69224,0.67489 7.04273,0.98641 7.41811,0.98504 14.77358,2.07868 22.10625,3.57359 1.78949,0.35881 3.58213,0.69854 5.37547,1.03757 10.07189,1.92583 19.95623,4.29156 29.84437,6.99965 0.58378,0.15983 1.16756,0.31966 1.76903,0.48433 11.99522,3.32005 23.96692,7.15342 35.5561,11.70046 1.57877,0.61718 3.16153,1.22379 4.74388,1.83176 48.61759,18.77752 48.61759,18.77752 57.17533,27.33526 0.26828,1.62042 0.26828,1.62042 0.45014,3.70013 0.0339,0.37613 0.0677,0.75228 0.10256,1.13981 0.0713,0.80352 0.1402,1.60726 0.2069,2.41117 0.0987,1.18742 0.20452,2.374 0.31189,3.56067 0.8683,9.82768 1.21814,19.63392 1.18779,29.49762 -0.001,1.01025 -0.002,2.0205 -0.002,3.03075 -0.002,2.61761 -0.007,5.2352 -0.0136,7.8528 -0.006,2.68764 -0.008,5.37527 -0.0109,8.0629 -0.006,5.24293 -0.0152,10.48584 -0.0269,15.72876 -0.18195,0 -0.3639,0 -0.55136,0 0,-3.09311 0,-6.18623 0,-9.37307 -10.13642,2.79216 -10.13642,2.79216 -20.19346,5.85386 -1.98106,0.63252 -3.97029,1.23542 -5.96156,1.83499 -0.63544,0.19229 -1.27087,0.3846 -1.92557,0.58272 -1.25805,0.38029 -2.51679,0.75831 -3.77632,1.13367 -3.08307,0.93613 -5.99881,1.98025 -8.91917,3.33884 -1.75237,0.7595 -3.51145,1.199 -5.36564,1.66013 -1.9651,0.49382 -3.88629,0.9831 -5.80002,1.64976 -1.54013,0.48675 -1.54013,0.48675 -3.74556,0.48675 0,59.86087 0,119.72175 0,181.39659 -0.18194,0 -0.36389,0 -0.55135,0 0,-67.68463 0,-135.36927 0,-205.10496 -16.55727,0 -33.11453,0 -50.17353,0 -8.83729,-4.41865 -9.67245,-5.63032 -13.23258,-14.88665 0,-16.73921 0,-33.47842 0,-50.72488 -46.39673,0 -92.79345,0 -140.59614,0 0,-0.18195 0,-0.3639 0,-0.55136 13.46415,0 26.92829,0 40.80045,0 0,-16.37532 0,-32.75063 0,-49.62217 z"
       id="path4"
       style="stroke-width:0.551357" /><path
       fill="#d4d4d4"
       d="m 311.77726,700.77199 c 0,41.12024 0,82.24048 0,124.60678 -4.91259,2.00143 -9.82519,4.00286 -14.88665,6.06494 -5.10684,2.12345 -5.10684,2.12345 -10.21088,4.25363 -1.90263,0.79506 -3.80737,1.58434 -5.71603,2.36481 -0.62353,0.25506 -0.62353,0.25506 -1.25967,0.51528 -0.74207,0.30292 -1.48452,0.60494 -2.2275,0.90565 -2.58613,1.05587 -5.1237,2.20651 -7.66368,3.36858 -2.60699,1.18155 -5.2365,2.31042 -7.86452,3.44424 -4.05806,1.75577 -8.08864,3.55088 -12.09324,5.42526 -1.37748,0.62577 -2.76189,1.19447 -4.1718,1.74238 -2.39639,0.93738 -4.73108,1.98393 -7.06427,3.06693 -0.3407,0.15702 -0.68141,0.31405 -1.03245,0.47584 -1.7536,0.82149 -3.44204,1.69598 -5.11217,2.67723 -1.74668,0.98211 -1.74668,0.98211 -2.84939,0.98211 -0.18195,0.54584 -0.3639,1.09169 -0.55136,1.65407 -9.36149,-33.36995 -9.36149,-33.36995 -10.82497,-42.33122 -0.24691,-1.49726 -0.50814,-2.99183 -0.76861,-4.48678 -0.20222,-1.17586 -0.40395,-2.3518 -0.60521,-3.52782 -0.0943,-0.54634 -0.1886,-1.09267 -0.28577,-1.65556 -0.52917,-3.15997 -0.91394,-6.29819 -1.1785,-9.49099 -0.15353,-1.73036 -0.3985,-3.43781 -0.67224,-5.15296 -0.091,-0.57854 -0.18194,-1.15707 -0.27567,-1.75314 -0.16569,-0.97598 -0.34513,-1.94997 -0.55136,-2.91818 -0.2795,-1.4828 -0.4328,-2.92867 -0.55136,-4.43254 -0.0682,-0.84488 -0.0682,-0.84488 -0.13784,-1.70683 -0.0455,-0.58316 -0.091,-1.16632 -0.13784,-1.76715 -0.0914,-1.15085 -0.18332,-2.30167 -0.27568,-3.45245 -0.0452,-0.56503 -0.0904,-1.13006 -0.13689,-1.71222 -0.12473,-1.45938 -0.27229,-2.91378 -0.42954,-4.36994 -0.32954,-3.23773 -0.45906,-6.47678 -0.57074,-9.72844 -0.0234,-0.66929 -0.0468,-1.33858 -0.0709,-2.02815 -0.29855,-9.68152 -0.21813,-19.36979 -0.17028,-29.05462 1.29025,-0.69384 2.58115,-1.38644 3.87243,-2.07836 0.35923,-0.19335 0.71846,-0.38669 1.08857,-0.58589 5.48403,-2.93509 11.09412,-5.49978 16.92315,-7.67586 1.98819,-0.7488 3.95642,-1.54259 5.92494,-2.34112 3.23457,-1.30545 6.49532,-2.51024 9.7909,-3.65489 1.23267,-0.43288 2.44707,-0.89413 3.6623,-1.37476 4.34795,-1.71847 8.71601,-3.12486 13.21872,-4.37788 0.68003,-0.19146 1.36007,-0.38291 2.06072,-0.58017 4.43717,-1.24172 8.87864,-2.43904 13.36194,-3.50386 1.47774,-0.35372 2.95293,-0.71739 4.42836,-1.08064 5.54117,-1.3574 11.08844,-2.67745 16.67641,-3.82935 0.4355,-0.0924 0.871,-0.18479 1.3197,-0.27998 0.4124,-0.0824 0.82481,-0.16489 1.24971,-0.24984 0.52672,-0.10701 0.52672,-0.10701 1.06408,-0.21618 1.88972,-0.21895 3.80276,-0.14996 5.70512,-0.14996 z"
       id="path5"
       style="stroke-width:0.551357" /><path
       fill="#051f34"
       d="m 428.11368,857.90886 c 5.06804,4.02708 8.72977,8.45483 11.71635,14.163 0.18168,0.33657 0.36336,0.67315 0.55054,1.01992 3.5225,7.0549 3.38979,14.56752 3.2745,22.24047 -0.008,0.9742 -0.0159,1.94841 -0.0226,2.92262 -0.018,2.35709 -0.0464,4.71383 -0.0808,7.07073 0.56743,-0.0164 1.13486,-0.0328 1.71949,-0.0497 0.7521,-0.0132 1.5042,-0.0261 2.25631,-0.0387 0.37309,-0.0118 0.74618,-0.0236 1.13058,-0.0359 2.90894,-0.0363 4.58249,0.49179 6.70258,2.45022 3.08282,3.47103 4.22886,5.9113 4.27799,10.6388 0.0106,0.89543 0.0106,0.89543 0.0215,1.80896 0.004,0.64208 0.008,1.28415 0.0124,1.94568 0.004,0.67013 0.009,1.34025 0.0135,2.03068 0.008,1.42142 0.0136,2.84286 0.0179,4.2643 0.006,1.43765 0.0175,2.87529 0.0339,4.31286 0.19929,17.49583 -3.07946,32.18751 -15.08331,45.45186 -0.47974,0.53163 -0.95948,1.06326 -1.45377,1.61099 -8.24837,8.82188 -18.99914,14.88832 -30.06567,19.46497 -0.68318,0.28863 -1.36131,0.58949 -2.03421,0.90128 -3.90485,1.7914 -7.0683,1.3238 -11.04599,-0.0996 -8.37135,-3.22194 -16.26836,-7.36195 -23.21732,-13.05597 -0.43897,-0.35182 -0.43897,-0.35182 -0.8868,-0.71074 -11.97064,-9.6046 -21.46988,-22.29542 -23.37293,-37.88428 -0.36598,-5.25591 -0.36611,-10.5217 -0.3481,-15.78786 0.006,-2.0467 -0.0125,-4.09233 -0.0379,-6.13885 -0.0163,-1.59653 -0.0172,-3.19281 -0.0138,-4.78941 -5.5e-4,-1.11684 -0.016,-2.23364 -0.0317,-3.35037 0.0445,-4.44067 0.64573,-7.43474 3.73952,-10.73396 2.61746,-2.25393 4.96819,-2.82787 8.37374,-2.79125 0.59915,0.005 1.1983,0.01 1.8156,0.015 0.45843,0.006 0.91685,0.0128 1.38917,0.0194 -0.006,-0.53323 -0.0115,-1.06646 -0.0175,-1.61584 -0.0202,-2.00996 -0.0327,-4.01991 -0.0431,-6.02994 -0.006,-0.86402 -0.013,-1.72804 -0.0226,-2.59202 -0.13422,-12.3487 2.21575,-23.27353 10.87773,-32.62378 14.00472,-13.0786 33.93746,-15.14345 49.85477,-4.0038 z"
       id="path6"
       style="stroke-width:0.551357" /><path
       fill="#c1c2c1"
       d="m 353.68043,605.38716 c 0.18194,0 0.36389,0 0.55135,0 0.18195,11.46272 0.3639,22.92544 0.55136,34.73552 8.46058,-0.27292 8.46058,-0.27292 17.09208,-0.55136 3.22849,-0.0544 6.45215,-0.10082 9.68039,-0.11509 0.83375,-0.006 1.6675,-0.0108 2.50125,-0.0164 2.64978,-0.0168 5.29956,-0.0284 7.94937,-0.0387 0.4565,-0.002 0.91299,-0.004 1.38332,-0.006 4.32487,-0.0169 8.64974,-0.0315 12.97462,-0.041 5.46504,-0.0121 10.92978,-0.0356 16.3947,-0.0736 3.8859,-0.0261 7.77172,-0.0394 11.65771,-0.0435 2.30515,-0.003 4.60996,-0.0109 6.91501,-0.0329 2.15856,-0.0205 4.3166,-0.0249 6.47524,-0.0177 0.78589,-2e-5 1.5718,-0.006 2.35759,-0.0175 7.37763,-0.10563 12.46471,2.09112 17.78209,7.16449 0.7519,0.74628 0.7519,0.74628 1.51898,1.50764 0.62465,0.61161 1.24949,1.22305 1.87447,1.83433 2.21687,2.17823 4.41328,4.37661 6.60911,6.57602 0.81102,0.81065 1.62212,1.62121 2.43329,2.4317 1.69088,1.69006 3.38076,3.38111 5.06993,5.07287 2.15588,2.15903 4.31423,4.31556 6.47333,6.47135 1.67217,1.67018 3.34302,3.34167 5.01348,5.01356 0.79508,0.79545 1.59057,1.5905 2.38648,2.38511 1.11439,1.11298 2.22698,2.22773 3.33913,3.34294 0.3229,0.32178 0.64578,0.64354 0.97845,0.97507 2.01025,2.02039 3.91042,4.11224 5.76872,6.27333 1.1443,1.30705 2.36657,2.52077 3.61084,3.73231 1.61613,1.59669 3.17804,3.19921 4.65208,4.92776 1.55479,1.82184 3.21651,3.49332 4.92776,5.16897 5.76153,5.71392 9.94744,10.26845 9.99981,18.62124 0.0148,0.87411 0.0148,0.87411 0.03,1.76588 0.0298,1.85369 0.0485,3.70731 0.0669,5.56114 0.0183,1.25995 0.0373,2.51989 0.0571,3.77982 0.0468,3.08193 0.0845,6.16387 0.11522,9.246 -0.67804,0.18621 -1.35608,0.37243 -2.05466,0.56428 -0.90028,0.24835 -1.80055,0.49675 -2.7008,0.7452 -0.44563,0.12224 -0.89125,0.24449 -1.35039,0.37044 -1.90866,0.5276 -3.78722,1.06592 -5.65788,1.71868 -1.46885,0.46091 -1.46885,0.46091 -3.67428,0.46091 0,59.86088 0,119.72175 0,181.39659 -0.18194,0 -0.36389,0 -0.55135,0 0,-67.68463 0,-135.36927 0,-205.10496 -16.55727,0 -33.11453,0 -50.17353,0 -8.83729,-4.41865 -9.67245,-5.63032 -13.23258,-14.88665 0,-16.73921 0,-33.47842 0,-50.72488 -46.39673,0 -92.79345,0 -140.59614,0 0,-0.18195 0,-0.3639 0,-0.55136 13.46415,0 26.92829,0 40.80045,0 0,-16.37532 0,-32.75063 0,-49.62217 z"
       id="path7-0"
       style="stroke-width:0.551357" /><path
       fill="#b5b6b7"
       d="m 573.12068,728.33987 c 0.1566,17.8141 -0.41708,35.06015 -2.83599,52.73695 -0.39598,2.90439 -0.76683,5.81151 -1.13119,8.72001 -1.7761,14.10487 -4.14508,27.94261 -7.4261,41.78471 -0.58314,2.47335 -1.09801,4.94545 -1.56362,7.44333 -5.15443,26.1216 -16.08542,51.6786 -27.29219,75.67381 -0.18195,0 -0.36389,0 -0.55136,0 -0.0252,-22.10673 -0.0447,-44.21345 -0.0563,-66.32019 -0.002,-2.60744 -0.003,-5.21487 -0.004,-7.82231 -2.9e-4,-0.51912 -5.5e-4,-1.03823 -0.001,-1.57307 -0.005,-8.41531 -0.0135,-16.83061 -0.0236,-25.24592 -0.0103,-8.62912 -0.0164,-17.25823 -0.0187,-25.88735 -0.002,-5.32848 -0.006,-10.65693 -0.0153,-15.98539 -0.006,-3.64949 -0.008,-7.29896 -0.006,-10.94845 5.5e-4,-2.10838 -4e-4,-4.21672 -0.006,-6.32509 -0.006,-2.28128 -0.004,-4.56246 -0.001,-6.84374 -0.003,-0.67256 -0.006,-1.34512 -0.01,-2.03806 0.002,-0.60718 0.004,-1.21437 0.007,-1.83995 -4.2e-4,-0.52717 -5.5e-4,-1.05434 -10e-4,-1.59749 0.13694,-1.25058 0.13694,-1.25058 1.23965,-2.3533 1.01306,-0.42697 1.01306,-0.42697 2.25281,-0.83565 0.6931,-0.23034 0.6931,-0.23034 1.4002,-0.46534 0.50027,-0.16201 1.00054,-0.32401 1.51597,-0.49092 0.51804,-0.17018 1.03607,-0.34035 1.5698,-0.51568 3.90938,-1.27446 7.83834,-2.47689 11.7815,-3.64212 3.68652,-1.08981 7.35202,-2.23905 11.00992,-3.42135 6.89151,-2.20744 6.89151,-2.20744 10.16754,-2.20744 z"
       id="path8-9"
       style="stroke-width:0.551357" /><path
       fill="#a0a1a3"
       d="m 532.32023,741.02109 c 0.20257,21.98421 0.35769,43.96831 0.45049,65.95327 0.011,2.60411 0.0224,5.20821 0.0341,7.81232 0.002,0.51836 0.004,1.03672 0.007,1.57079 0.0382,8.35881 0.10771,16.71709 0.18902,25.07558 0.0829,8.59676 0.13159,17.19324 0.14941,25.79039 0.012,5.29183 0.0497,10.58214 0.12198,15.8735 0.0471,3.64409 0.0606,7.2874 0.0493,10.93178 -0.006,2.09346 0.002,4.18426 0.0503,6.27723 0.28318,12.91968 -3.14155,21.27624 -9.87332,32.03616 -0.83265,1.41711 -1.65144,2.84116 -2.46612,4.26864 -2.45836,4.28425 -2.45836,4.28425 -4.43791,5.18761 -2.48693,0.60716 -4.80433,0.61345 -7.35454,0.59337 -0.53825,1.6e-4 -1.0765,3.2e-4 -1.63107,5e-4 -1.77207,-5.6e-4 -3.54403,-0.009 -5.31608,-0.018 -1.23143,-0.002 -2.46286,-0.004 -3.69429,-0.005 -3.23592,-0.004 -6.47179,-0.015 -9.7077,-0.0272 -3.30407,-0.0113 -6.60816,-0.0163 -9.91225,-0.0219 -6.4792,-0.0116 -12.95833,-0.031 -19.4375,-0.0536 0,-5.27649 0,-10.55298 0,-15.98936 19.10453,0 38.20907,0 57.89253,0 0,-59.86088 0,-119.72176 0,-181.3966 13.50826,-3.8595 13.50826,-3.8595 14.88665,-3.8595 z"
       id="path9-4"
       style="stroke-width:0.551357" /><path
       fill="#b5b7b8"
       d="m 334.93427,787.33511 c 52.58296,0 105.16592,0 159.3423,0 0,4.73065 0,9.46129 0,14.33529 -52.58296,0 -105.16591,0 -159.3423,0 0,-4.73064 0,-9.46129 0,-14.33529 z"
       id="path11-8"
       style="stroke-width:0.551357" /><path
       fill="#a0a1a3"
       d="m 311.77726,825.37877 c 0,33.29648 0,66.59295 0,100.89841 13.2822,0 26.5644,0 40.24909,0 0,-4.1848 0,-8.3696 0,-12.68122 0.18195,0 0.3639,0 0.55136,0 0,9.27935 0,18.55869 0,28.11923 -2.1107,0.52768 -3.76472,0.62799 -5.92871,0.6402 -0.36967,0.003 -0.73935,0.006 -1.12023,0.008 -1.21982,0.008 -2.43961,0.0118 -3.65945,0.0148 -0.85159,0.003 -1.70319,0.006 -2.55478,0.01 -1.7853,0.006 -3.5706,0.009 -5.35591,0.0109 -2.27904,0.003 -4.55789,0.0163 -6.83687,0.032 -1.75964,0.0103 -3.51924,0.0131 -5.27892,0.014 -0.83967,0.002 -1.67934,0.006 -2.51899,0.0133 -6.94022,0.0558 -11.75043,-0.75623 -16.91966,-5.7053 -4.84991,-5.8726 -5.20008,-11.44756 -5.15,-18.73107 4.7e-4,-0.95126 2e-4,-1.90251 -5.5e-4,-2.85376 -4.7e-4,-2.5731 0.009,-5.14606 0.0208,-7.71912 0.0104,-2.69247 0.0113,-5.38495 0.0133,-8.07743 0.005,-5.09444 0.0187,-10.18882 0.0353,-15.28324 0.0185,-5.80157 0.0276,-11.60314 0.0359,-17.40473 0.0172,-11.93046 0.0463,-23.86086 0.0832,-35.79127 2.07692,-0.92385 4.15676,-1.84094 6.23723,-2.75679 0.59098,-0.26297 1.18195,-0.52594 1.79083,-0.79688 0.85022,-0.37314 0.85022,-0.37314 1.71761,-0.75381 0.52262,-0.23099 1.04522,-0.46198 1.58368,-0.69997 1.35187,-0.50613 1.35187,-0.50613 3.00594,-0.50613 z"
       id="path12"
       style="stroke-width:0.551357" /><path
       fill="#c9c9c9"
       d="m 335.48563,755.35638 c 52.21906,0 104.43813,0 158.23958,0 0,4.36675 0,8.7335 0,13.23258 -52.21906,0 -104.43812,0 -158.23958,0 0,-4.36675 0,-8.7335 0,-13.23258 z"
       id="path13-8"
       style="stroke-width:0.551357" /><path
       fill="#bdbebd"
       d="m 311.77726,700.77199 c 0,41.12024 0,82.24048 0,124.60678 -13.23258,5.51358 -13.23258,5.51358 -14.33529,5.51358 -0.46889,-2.83189 -0.62672,-5.57471 -0.60944,-8.44655 4.4e-4,-0.4418 10e-4,-0.88361 10e-4,-1.33879 0.002,-1.45772 0.008,-2.91538 0.0147,-4.37308 0.003,-1.03791 0.005,-2.07582 0.007,-3.11372 0.008,-3.24815 0.0211,-6.49626 0.0351,-9.74438 0.004,-1.00794 0.008,-2.01589 0.0118,-3.02383 0.0259,-6.5662 0.0614,-13.13233 0.0996,-19.69847 0.0159,-2.76595 0.0311,-5.53191 0.0464,-8.29786 0.0288,-5.19533 0.0582,-10.39066 0.0879,-15.58598 0.0339,-5.93268 0.067,-11.86536 0.10001,-17.79805 0.0678,-12.16474 0.13649,-24.32948 0.20581,-36.49422 1.03336,-0.26586 2.06727,-0.52964 3.10138,-0.79257 0.86354,-0.22068 0.86354,-0.22068 1.74453,-0.44582 3.33264,-0.78249 5.98172,-0.96704 9.48938,-0.96704 z"
       id="path14"
       style="stroke-width:0.551357" /><path
       fill="#babbbd"
       d="m 335.48563,820.41656 c 38.39102,0 76.78204,0 116.33642,0 0,4.5487 0,9.09739 0,13.78393 -38.39102,0 -76.78204,0 -116.33642,0 0,-4.5487 0,-9.0974 0,-13.78393 z"
       id="path15-2"
       style="stroke-width:0.551357" /><path
       fill="#fdfdfc"
       d="m 461.74648,659.42019 c 2.25541,1.85692 4.15955,3.65609 6.00894,5.92278 1.01384,1.08922 2.03972,2.02282 3.16802,2.98833 2.32705,2.02524 4.52083,4.15743 6.69826,6.3414 0.40398,0.40301 0.80794,0.80601 1.22416,1.22124 1.3199,1.3175 2.63781,2.63698 3.95559,3.95663 0.92073,0.92035 1.84154,1.84064 2.76243,2.76084 1.92132,1.9205 3.84164,3.84199 5.76126,5.76419 2.46655,2.46972 4.9356,4.93692 7.40537,7.40341 1.89763,1.89563 3.79394,3.79257 5.68986,5.68992 0.9106,0.91098 1.82163,1.82154 2.73306,2.7317 1.26714,1.26574 2.5325,2.53322 3.7974,3.8012 0.37974,0.37863 0.75948,0.75725 1.15072,1.14735 0.34157,0.34312 0.68314,0.68624 1.03505,1.03976 0.44882,0.44913 0.44882,0.44913 0.90671,0.90733 0.63349,0.70287 0.63349,0.70287 0.63349,1.25423 -5.82815,0.0384 -11.65626,0.0677 -17.4845,0.0857 -2.70648,0.009 -5.41287,0.0203 -8.1193,0.0391 -2.61329,0.018 -5.22651,0.0279 -7.83985,0.0322 -0.99557,0.003 -1.99113,0.009 -2.98665,0.018 -1.39763,0.0121 -2.79493,0.0137 -4.19261,0.0129 -0.61332,0.009 -0.61332,0.009 -1.23903,0.018 -2.84663,-0.0168 -4.72673,-0.5672 -7.20887,-1.85987 -2.94799,-3.02766 -3.47224,-5.91734 -3.48395,-10.02741 -0.006,-0.44675 -0.0111,-0.8935 -0.0168,-1.35379 -0.017,-1.47072 -0.0264,-2.94139 -0.0357,-4.41217 -0.0103,-1.02208 -0.0211,-2.04415 -0.0324,-3.06621 -0.0283,-2.68568 -0.0501,-5.37137 -0.0707,-8.05712 -0.0221,-2.74235 -0.0502,-5.48464 -0.0779,-8.22695 -0.0533,-5.37749 -0.0999,-10.75501 -0.14215,-16.13259 z"
       id="path16-4"
       style="stroke-width:0.551357" /><path
       fill="#fafcfc"
       d="m 418.63722,871.79618 c 2.42862,2.02457 4.05868,4.33352 5.61696,7.06426 0.32978,0.56859 0.65956,1.13718 0.99933,1.723 2.81423,6.81338 1.2061,19.30185 1.2061,24.1908 -13.82805,0 -27.65609,0 -41.90317,0 0,-24.61499 0,-24.61499 6.99751,-31.83873 7.44591,-6.92764 19.00464,-6.92903 27.08327,-1.13933 z"
       id="path17"
       style="stroke-width:0.551357" /><path
       fill="#cdcdcd"
       d="m 334.93427,787.33511 c 52.58296,0 105.16592,0 159.3423,0 0,4.73065 0,9.46129 0,14.33529 -52.58296,0 -105.16591,0 -159.3423,0 0,-4.73064 0,-9.46129 0,-14.33529 z m 73.8819,0.55136 c 0,0.36389 0,0.72779 0,1.10271 -0.33884,0.089 -0.67768,0.17804 -1.02679,0.26976 -3.4546,0.96349 -6.45527,2.27132 -9.58684,4.00326 -0.90846,0.49183 -1.81735,0.98287 -2.72663,1.47316 -0.44439,0.24058 -0.88878,0.48117 -1.34663,0.72904 -2.51352,1.33625 -5.08181,2.56139 -7.64739,3.79382 -1.43703,0.62343 -1.43703,0.62343 -1.92545,1.86083 36.0257,0 72.05139,0 109.16877,0 0,-4.36675 0,-8.73351 0,-13.23258 -28.01998,0 -56.03997,0 -84.90904,0 z"
       id="path18"
       style="stroke-width:0.551357" /><path
       fill="#f9fbfb"
       d="m 414.1919,929.92993 c 2.80352,2.95926 4.16555,6.15562 4.27302,10.23457 -0.18558,4.02105 -1.33347,6.83859 -4.13518,9.82105 -0.36389,0 -0.72779,0 -1.10271,0 0.0115,0.36394 0.0231,0.72788 0.035,1.10285 0.0462,1.66543 0.0746,3.33072 0.10284,4.99654 0.0277,0.85875 0.0277,0.85875 0.056,1.73484 0.0457,3.59767 -0.21908,5.79957 -2.39927,8.7065 -2.58952,1.82443 -4.65731,1.94566 -7.719,1.65407 -2.27328,-0.87831 -3.32778,-2.1997 -4.5024,-4.31516 -1.06181,-2.76736 -0.69545,-5.89812 -0.63212,-8.81727 -0.0289,-3.4964 -0.61455,-5.31995 -2.89045,-7.98459 -2.27175,-2.67243 -2.16843,-5.69568 -2.10407,-9.04611 0.36897,-3.27411 1.63642,-5.53834 4.02965,-7.77716 5.94999,-4.68787 10.75731,-3.99231 16.9887,-0.31013 z"
       id="path19"
       style="stroke-width:0.551357" /><path
       fill="#d6e3e9"
       d="m 399.44309,928.48261 c 0.3639,0.18195 0.7278,0.3639 1.10272,0.55136 -1.09169,1.09169 -2.18338,2.18338 -3.30815,3.30814 -0.54584,-0.18194 -1.09168,-0.36389 -1.65407,-0.55135 1.27364,-1.09169 2.54727,-2.18338 3.8595,-3.30815 z"
       id="path43-5"
       style="stroke-width:0.551357" /></g></svg>
