<?xml version="1.0" encoding="UTF-8" standalone="no"?>
<svg
   version="1.1"
   viewBox="571.752448 350.6176 913.408 905.216"
   style="max-height: 500px;background-color:transparent;"
   width="913.408"
   height="905.216"
   id="svg45"
   sodipodi:docname="transparent_logo_SVG.svg"
   inkscape:version="1.4.2 (f4327f4, 2025-05-13)"
   xmlns:inkscape="http://www.inkscape.org/namespaces/inkscape"
   xmlns:sodipodi="http://sodipodi.sourceforge.net/DTD/sodipodi-0.dtd"
   xmlns="http://www.w3.org/2000/svg"
   xmlns:svg="http://www.w3.org/2000/svg">
  <defs
     id="defs45" />
  <sodipodi:namedview
     id="namedview45"
     pagecolor="#505050"
     bordercolor="#eeeeee"
     borderopacity="1"
     inkscape:showpageshadow="0"
     inkscape:pageopacity="0"
     inkscape:pagecheckerboard="0"
     inkscape:deskcolor="#505050"
     showgrid="false"
     inkscape:zoom="0.85393983"
     inkscape:cx="230.69541"
     inkscape:cy="440.89757"
     inkscape:window-width="1920"
     inkscape:window-height="991"
     inkscape:window-x="-9"
     inkscape:window-y="-9"
     inkscape:window-maximized="1"
     inkscape:current-layer="svg45" />
  <rect
     style="fill:#ffffff;fill-opacity:1"
     id="rect45"
     width="373.07767"
     height="492.00641"
     x="950.00415"
     y="467.99402" />
  <path
     transform="translate(1026,378)"
     fill="#051F34"
     d="M0 0 C0 29.7 0 59.4 0 90 C-25.08 90 -50.16 90 -76 90 C-76 113.43 -76 136.86 -76 161 C-82.084375 162.19625 -88.16875 163.3925 -94.4375 164.625 C-119.33978005 169.58776773 -143.75499676 175.38613338 -168 183 C-168.63484314 183.19916016 -169.26968628 183.39832031 -169.92376709 183.60351562 C-201.7776632 193.62323475 -232.14578025 206.05489636 -262 221 C-263.10972168 221.55478027 -264.21944336 222.10956055 -265.36279297 222.68115234 C-266.23307129 223.11637207 -267.10334961 223.5515918 -268 224 C-268.1792609 252.48317881 -268.04349303 280.88618964 -265.24853516 309.25878906 C-264.99981885 312.00199804 -264.80895615 314.7431816 -264.63671875 317.4921875 C-261.39963676 367.61778212 -251.58325915 417.99873163 -235.75683594 465.65234375 C-234.13458496 470.68446163 -232.74479159 475.78763342 -231.3359375 480.8828125 C-229.98313713 485.35224811 -228.13122669 489.60019068 -226.30712891 493.89404297 C-225.08465958 496.79883467 -223.92062157 499.71803225 -222.78125 502.65625 C-210.6836937 533.74039607 -196.35409554 564.08559252 -178 592 C-177.54979492 592.69432129 -177.09958984 593.38864258 -176.63574219 594.10400391 C-164.85042578 612.27471621 -151.96951992 629.45638635 -138 646 C-136.99346842 647.20310729 -135.98695721 648.40623163 -134.98046875 649.609375 C-122.36122962 664.599323 -108.9379544 679.52705112 -94.015625 692.265625 C-91.69885379 694.25912581 -89.44580016 696.31554388 -87.1875 698.375 C-81.93813969 703.10580648 -76.50311234 707.56910697 -71 712 C-69.85508027 712.93702553 -68.71056742 713.87454838 -67.56640625 714.8125 C-58.34731616 722.33063269 -48.81601178 729.28389054 -39 736 C-38.20883789 736.54382324 -37.41767578 737.08764648 -36.60253906 737.64794922 C-14.89908645 752.5159728 7.68933 765.81810228 31 778 C32.52415527 778.80002441 32.52415527 778.80002441 34.07910156 779.61621094 C53.23289869 789.61027932 72.94874694 798.0032446 93 806 C90.34975495 809.06888995 87.21052461 810.66281606 83.65625 812.5546875 C83.02381882 812.89250244 82.39138763 813.23031738 81.73979187 813.57836914 C79.6633921 814.68405773 77.58224699 815.78036656 75.5 816.875 C74.42656845 817.44157318 74.42656845 817.44157318 73.33145142 818.01959229 C54.6685493 827.86086718 35.81501167 837.17442032 16.3125 845.25 C15.19576904 845.71647949 14.07903809 846.18295898 12.9284668 846.66357422 C11.34932495 847.30190186 11.34932495 847.30190186 9.73828125 847.953125 C8.82087158 848.32598633 7.90346191 848.69884766 6.95825195 849.08300781 C-0.08293571 851.26561909 -4.29214764 851.44678599 -11.04296875 848.38671875 C-11.68495712 848.10181076 -12.3269455 847.81690277 -12.98838806 847.52336121 C-15.0636666 846.59654279 -17.12529849 845.64301754 -19.1875 844.6875 C-20.63008793 844.03462344 -22.07329078 843.38310398 -23.51708984 842.73291016 C-27.05735102 841.13225221 -30.58630346 839.50837855 -34.11114502 837.87408447 C-36.73487922 836.65992809 -39.36625563 835.46258521 -41.99609375 834.26171875 C-54.64514819 828.41800354 -66.85053317 821.81175345 -79 815 C-79.90314941 814.49678223 -80.80629883 813.99356445 -81.73681641 813.47509766 C-93.79016563 806.7485023 -105.54149065 799.69710083 -117 792 C-117.75490723 791.49355957 -118.50981445 790.98711914 -119.28759766 790.46533203 C-148.66819241 770.68958056 -148.66819241 770.68958056 -162.16796875 759.3671875 C-164.36129929 757.53386569 -166.56967234 755.7317387 -168.80078125 753.9453125 C-176.22536928 747.99325302 -183.43512092 741.92071817 -190.390625 735.42578125 C-192.63873023 733.33585109 -194.92150911 731.31157261 -197.25 729.3125 C-200.73949335 726.2945598 -203.96277205 723.05867261 -207.1953125 719.76953125 C-209.0547614 717.87987987 -209.0547614 717.87987987 -211.5625 716 C-214.39922446 713.67243121 -216.60376992 711.05919778 -218.98046875 708.2734375 C-221.22734166 705.74407573 -223.59144327 703.37566293 -226 701 C-229.57083512 697.46686601 -232.96551225 693.86626905 -236.23046875 690.05078125 C-238.23786023 687.72433417 -240.30466638 685.45807314 -242.375 683.1875 C-251.0711455 673.53654123 -259.05172689 663.26921193 -267 653 C-267.70962891 652.08589355 -267.70962891 652.08589355 -268.43359375 651.15332031 C-303.96939131 605.19272577 -330.1394905 553.40529876 -350 499 C-350.32226562 498.12037598 -350.64453125 497.24075195 -350.9765625 496.33447266 C-354.35695009 487.06695734 -357.46691324 477.71988306 -360.31396484 468.27490234 C-360.79008475 466.69608196 -361.26983461 465.1183535 -361.75244141 463.54150391 C-373.45133162 425.21064464 -382.45645118 386.01673094 -387.5 346.25 C-387.93158138 342.88515587 -388.36574524 339.52064908 -388.80078125 336.15625 C-388.90518021 335.34669861 -389.00957916 334.53714722 -389.11714172 333.70306396 C-389.78998796 328.51802687 -390.52520383 323.34612762 -391.31665039 318.17773438 C-393.25245448 305.50516301 -394.17196895 292.78697137 -395 280 C-395.04253906 279.34676758 -395.08507812 278.69353516 -395.12890625 278.02050781 C-395.80061099 267.68316936 -396.44060372 257.34406202 -397 247 C-397.04483521 246.19868652 -397.08967041 245.39737305 -397.13586426 244.57177734 C-397.98155701 229.20970598 -398.16091617 213.88319171 -398.125 198.5 C-398.1234491 197.31412292 -398.12189819 196.12824585 -398.12030029 194.90643311 C-398.0927595 176.9186609 -397.92928573 158.96701243 -397 141 C-396.9660614 140.32346375 -396.9321228 139.64692749 -396.89715576 138.94989014 C-396.67544695 134.53677552 -396.43957345 130.12471808 -396.18597412 125.71331787 C-396.10497248 124.30233583 -396.02584743 122.89124453 -395.9487915 121.4800415 C-395.84019699 119.52917432 -395.71914969 117.57901262 -395.59765625 115.62890625 C-395.53070557 114.51588135 -395.46375488 113.40285645 -395.39477539 112.25610352 C-394.2802387 103.06341594 -394.2802387 103.06341594 -390.5234375 99.94287109 C-389.48445312 99.39195801 -388.44546875 98.84104492 -387.375 98.2734375 C-386.80514374 97.96356903 -386.23528748 97.65370056 -385.64816284 97.33444214 C-383.7768017 96.32480375 -381.88976226 95.34969887 -380 94.375 C-378.68032281 93.67441191 -377.36148479 92.97224097 -376.04345703 92.26855469 C-372.68371486 90.48424161 -369.3087606 88.73136533 -365.92590332 86.99133301 C-364.12106834 86.06231831 -362.31968227 85.12661185 -360.51855469 84.19042969 C-323.22875705 64.8619772 -284.1913544 49.16491952 -244 37 C-242.23941561 36.45757535 -240.47898909 35.9146379 -238.71875 35.37109375 C-233.82471567 33.87118509 -228.91670375 32.42368589 -224 31 C-222.97680664 30.70319336 -221.95361328 30.40638672 -220.89941406 30.10058594 C-217.58097991 29.14249494 -214.25983152 28.19448125 -210.9375 27.25 C-209.91438721 26.95593262 -208.89127441 26.66186523 -207.8371582 26.35888672 C-202.0798572 24.7391329 -196.36687347 23.45154334 -190.47241211 22.44287109 C-187.20439583 21.85748731 -184.02046487 21.03933248 -180.8125 20.1875 C-158.45574456 14.47743826 -135.73941349 10.8417766 -112.96026611 7.30596924 C-110.34596607 6.89791475 -107.73371028 6.47727322 -105.12109375 6.05859375 C-70.2579076 0.61971916 -35.24994842 0 0 0 Z"
     id="path2" />
  <path
     transform="translate(1424,601)"
     fill="#B3B4B4"
     d="M0 0 C0.28401106 32.30953568 -0.75646388 63.58879343 -5.1436615 95.64930725 C-5.86184546 100.91701609 -6.53445886 106.189665 -7.1953125 111.46484375 C-10.41662608 137.04691051 -14.71325543 162.14449084 -20.6640625 187.25 C-21.72170623 191.73591827 -22.65551476 196.21958505 -23.5 200.75 C-29.50316171 231.17280258 -40.61331868 261.22561728 -52 290 C-52.54309814 291.37913574 -52.54309814 291.37913574 -53.09716797 292.78613281 C-63.3958889 318.72865132 -75.18500775 344.26836093 -89.41650391 368.29370117 C-90.90096093 370.83073572 -92.34219474 373.38933241 -93.7784729 375.95384216 C-98.36825351 384.11339738 -103.40370387 391.92041079 -108.625 399.6875 C-109.05964569 400.33686523 -109.49429138 400.98623047 -109.94210815 401.65527344 C-117.32002995 412.67063128 -124.93258255 423.47581682 -133 434 C-133.48227051 434.63244629 -133.96454102 435.26489258 -134.46142578 435.91650391 C-143.63428996 447.90789886 -153.40963517 459.36725007 -163.72827148 470.38696289 C-166.31230506 473.14864024 -168.82902039 475.95006456 -171.296875 478.81640625 C-175.31540931 483.42972977 -179.60184884 487.7488015 -183.9375 492.0625 C-184.69740234 492.82626953 -185.45730469 493.59003906 -186.24023438 494.37695312 C-190.41835268 498.54793545 -194.6832363 502.54708671 -199.1574707 506.39819336 C-201.36497238 508.31728949 -203.48907344 510.31284372 -205.61352539 512.32275391 C-211.67827321 518.04953726 -218.00744389 523.27304461 -224.61328125 528.359375 C-227.73989732 530.77327413 -230.74771223 533.30752632 -233.75 535.875 C-247.93589319 547.75591979 -263.52514085 557.89964283 -279 568 C-279.69657715 568.45906738 -280.3931543 568.91813477 -281.11083984 569.39111328 C-282.89911666 570.56567265 -284.69652827 571.72395522 -286.5 572.875 C-287.4590625 573.49117187 -288.418125 574.10734375 -289.40625 574.7421875 C-293.71555308 576.8319399 -296.05727616 576.31492965 -300.56640625 574.80859375 C-302.04827459 574.21563872 -303.52574416 573.61163646 -305 573 C-305.88284668 572.64180176 -306.76569336 572.28360352 -307.67529297 571.91455078 C-337.34391912 559.7816782 -367.03895415 546.16089483 -394.23876953 529.10351562 C-396.13079777 527.91804742 -398.03162408 526.74756993 -399.93359375 525.578125 C-413.98616201 516.90631135 -427.66028494 507.73211916 -441 498 C-441.98355469 497.28328125 -442.96710938 496.5665625 -443.98046875 495.828125 C-471.38585396 475.56071462 -499.74048334 452.46503239 -520.8984375 425.6015625 C-523.13800634 422.82915944 -525.50947705 420.23343332 -527.9375 417.625 C-532.86677462 412.25520468 -537.31508619 406.58643842 -541.67724609 400.75537109 C-543.02552747 398.96612357 -544.39514465 397.1950351 -545.76953125 395.42578125 C-559.72481674 377.33472106 -571.68987084 357.82723288 -583 338 C-583.56509277 337.01290039 -583.56509277 337.01290039 -584.14160156 336.00585938 C-592.89288042 320.57619293 -600.12327966 304.13836763 -606.86645508 287.74829102 C-608.05594912 284.8643508 -609.27567068 281.99430106 -610.5 279.125 C-612.8094048 273.59401171 -614.82747023 267.98270367 -616.80078125 262.32421875 C-617.85815193 259.393201 -619.02099835 256.54925475 -620.25 253.6875 C-622.13462986 249.10511368 -622.68174079 244.93301775 -623 240 C-615.43028722 234.8627142 -607.30558702 231.4617066 -598.87890625 228.02734375 C-595.45338043 226.62551747 -592.07870584 225.14153425 -588.71484375 223.59765625 C-581.4398215 220.26165261 -574.05271309 217.19814386 -566.671875 214.10546875 C-557.21352537 210.12713448 -547.88751782 205.91270512 -538.625 201.5 C-531.87160066 198.32081354 -525.00108606 195.59108822 -518 193 C-510.92191658 190.34571872 -503.96913615 187.57853493 -497.109375 184.40234375 C-493.10102378 182.59455721 -489.05807566 180.88021435 -485 179.1875 C-484.25717773 178.87312988 -483.51435547 178.55875977 -482.74902344 178.23486328 C-479.68935796 176.96809144 -477.34503811 176 -474 176 C-474 236.39 -474 296.78 -474 359 C-449.91 359 -425.82 359 -401 359 C-401 351.41 -401 343.82 -401 336 C-397.92231363 328.64357892 -394.79485793 324.97435087 -388 321 C-384.71480525 319.90493508 -382.26336585 319.90039392 -378.8125 319.9375 C-377.72582031 319.94652344 -376.63914062 319.95554687 -375.51953125 319.96484375 C-374.68808594 319.97644531 -373.85664062 319.98804688 -373 320 C-373.01047363 319.03288086 -373.02094727 318.06576172 -373.03173828 317.06933594 C-373.06839541 313.42386694 -373.09106377 309.77841364 -373.10986328 306.1328125 C-373.11981813 304.56572719 -373.1333869 302.99865993 -373.15087891 301.43164062 C-373.39432339 279.03474843 -369.1321737 259.22031638 -353.421875 242.26171875 C-338.42603413 228.25753832 -320.73266871 221.07630193 -300.15234375 221.7109375 C-280.74061819 222.7742265 -264.22546993 232.10607293 -251.09765625 246.015625 C-247.30545628 250.52154968 -244.46962268 255.48954166 -241.75 260.6875 C-241.2557251 261.60317749 -241.2557251 261.60317749 -240.75146484 262.53735352 C-234.36269884 275.33285902 -234.60339797 288.95853636 -234.8125 302.875 C-234.82758936 304.64191555 -234.84127017 306.40884371 -234.85351562 308.17578125 C-234.88614946 312.45083963 -234.93769089 316.72527541 -235 321 C-233.97084473 320.970271 -232.94168945 320.94054199 -231.88134766 320.90991211 C-230.51726456 320.88586765 -229.15316853 320.86254984 -227.7890625 320.83984375 C-227.11238525 320.8183728 -226.43570801 320.79690186 -225.73852539 320.77478027 C-220.46256591 320.7089512 -217.427244 321.6667452 -213.58203125 325.21875 C-203.88736372 336.13422752 -206 342.28200017 -206 359 C-171.35 359 -136.7 359 -101 359 C-101 250.43 -101 141.86 -101 30 C-94.07 28.02 -87.14 26.04 -80 24 C-74.77841173 22.32334322 -69.64620131 20.63915717 -64.5390625 18.65625 C-58.51394113 16.38791084 -52.34033686 14.57333671 -46.1875 12.6875 C-43.59344086 11.88902275 -40.99984685 11.08903985 -38.40625 10.2890625 C-37.7688237 10.09270706 -37.1313974 9.89635162 -36.47465515 9.69404602 C-30.29860515 7.78932202 -24.1377138 5.83745528 -17.98706055 3.85229492 C-5.92640319 0 -5.92640319 0 0 0 Z"
     id="path3" />
  <path
     transform="translate(1026,378)"
     fill="#D5D5D5"
     d="M0 0 C29.10504237 0 29.10504237 0 43.1875 0.875 C44.73965814 0.96698932 46.29182297 1.05886561 47.84399414 1.15063477 C64.7471299 2.16939124 81.50354029 3.63381821 98.25390625 6.15234375 C102.50674236 6.79000567 106.7642458 7.37640351 111.02734375 7.94140625 C124.48161719 9.72798346 137.82227739 11.71150946 151.12158203 14.42285156 C154.36718351 15.07362356 157.61851066 15.68978017 160.87109375 16.3046875 C179.13852571 19.79757578 197.06580736 24.08830647 215 29 C216.05880371 29.28987793 217.11760742 29.57975586 218.20849609 29.87841797 C239.96428429 35.90001519 261.67741572 42.85262865 282.69677734 51.09960938 C285.56021242 52.21900184 288.43086926 53.31919581 291.30078125 54.421875 C379.4787731 88.4787731 379.4787731 88.4787731 395 104 C395.48657227 106.93896484 395.48657227 106.93896484 395.81640625 110.7109375 C395.87779282 111.39314362 395.93917938 112.07534973 396.00242615 112.77822876 C396.13175935 114.23557092 396.25671463 115.69330707 396.37768555 117.15136719 C396.55668189 119.30499826 396.74862886 121.45711659 396.94335938 123.609375 C398.51821213 141.43390249 399.15271188 159.21953481 399.09765625 177.109375 C399.09578371 178.94167034 399.09436378 180.77396618 399.09336853 182.60626221 C399.08960904 187.35383567 399.07983765 192.10137696 399.06866455 196.84893799 C399.05830644 201.72350632 399.05384055 206.59808001 399.04882812 211.47265625 C399.03820718 220.98178472 399.02121324 230.49088965 399 240 C398.67 240 398.34 240 398 240 C398 234.39 398 228.78 398 223 C379.61550727 228.06417306 379.61550727 228.06417306 361.375 233.6171875 C357.78195357 234.76438595 354.17406859 235.85788004 350.5625 236.9453125 C349.40999756 237.29408447 348.25749512 237.64285645 347.07006836 238.00219727 C344.78834117 238.69194051 342.5053587 239.37754927 340.22094727 240.05834961 C334.62916291 241.75621173 329.34086244 243.64992758 324.04418945 246.11401367 C320.86591555 247.49153141 317.67546334 248.28865175 314.3125 249.125 C310.74840392 250.02065031 307.26391984 250.90806203 303.79296875 252.1171875 C301 253 301 253 297 253 C297 361.57 297 470.14 297 582 C296.67 582 296.34 582 296 582 C296 459.24 296 336.48 296 210 C265.97 210 235.94 210 205 210 C188.97174645 201.98587322 187.4570191 199.78824966 181 183 C181 152.64 181 122.28 181 91 C96.85 91 12.7 91 -74 91 C-74 90.67 -74 90.34 -74 90 C-49.58 90 -25.16 90 0 90 C0 60.3 0 30.6 0 0 Z"
     id="path4" />
  <path
     transform="translate(950,551)"
     fill="#D4D4D4"
     d="M0 0 C0 74.58 0 149.16 0 226 C-8.91 229.63 -17.82 233.26 -27 237 C-36.26230476 240.85133281 -36.26230476 240.85133281 -45.51953125 244.71484375 C-48.97033551 246.15683633 -52.42498395 247.58835604 -55.88671875 249.00390625 C-57.01762939 249.46651855 -57.01762939 249.46651855 -58.17138672 249.93847656 C-59.51729731 250.48789046 -60.86388103 251.03566116 -62.21142578 251.58105469 C-66.90190638 253.49609561 -71.50430574 255.58301044 -76.11108398 257.69067383 C-80.83940048 259.83366051 -85.60855194 261.88110086 -90.375 263.9375 C-97.73512751 267.12194917 -105.04542173 270.37776258 -112.30859375 273.77734375 C-114.80692675 274.91229038 -117.3178287 275.94373749 -119.875 276.9375 C-124.22135232 278.63762799 -128.45578044 280.5357552 -132.6875 282.5 C-133.30544434 282.78480225 -133.92338867 283.06960449 -134.56005859 283.36303711 C-137.74057565 284.8529746 -140.80292072 286.43903986 -143.83203125 288.21875 C-147 290 -147 290 -149 290 C-149.33 290.99 -149.66 291.98 -150 293 C-166.97898125 232.47673885 -166.97898125 232.47673885 -169.63330078 216.22363281 C-170.08112692 213.50805328 -170.55492108 210.79734437 -171.02734375 208.0859375 C-171.39410118 205.95327478 -171.75998638 203.82046187 -172.125 201.6875 C-172.29604248 200.69661377 -172.46708496 199.70572754 -172.64331055 198.68481445 C-173.60306807 192.95355419 -174.30091618 187.26173982 -174.78076172 181.47094727 C-175.0592178 178.33257974 -175.50351611 175.23578189 -176 172.125 C-176.165 171.07570313 -176.33 170.02640625 -176.5 168.9453125 C-176.80049948 167.17518274 -177.12595799 165.40864936 -177.5 163.65258789 C-178.00693168 160.96322622 -178.28496138 158.3408638 -178.5 155.61328125 C-178.62375 154.0809082 -178.62375 154.0809082 -178.75 152.51757812 C-178.8325 151.45990234 -178.915 150.40222656 -179 149.3125 C-179.16584423 147.22519491 -179.33250272 145.13795434 -179.5 143.05078125 C-179.58193604 142.02597656 -179.66387207 141.00117187 -179.74829102 139.9453125 C-179.97449632 137.29842526 -180.24213465 134.66057281 -180.52734375 132.01953125 C-181.12504087 126.14724477 -181.35993935 120.27255114 -181.5625 114.375 C-181.6049585 113.16110596 -181.64741699 111.94721191 -181.69116211 110.6965332 C-182.2326421 93.13711053 -182.08679236 75.56543812 -182 58 C-179.65986578 56.74157585 -177.31855999 55.48541701 -174.9765625 54.23046875 C-174.32502197 53.87980347 -173.67348145 53.52913818 -173.00219727 53.16784668 C-163.0557958 47.84446381 -152.88073992 43.19285578 -142.30859375 39.24609375 C-138.70260584 37.88799441 -135.13281257 36.44829111 -131.5625 35 C-125.69593861 32.63228896 -119.78189898 30.44714812 -113.8046875 28.37109375 C-111.56899836 27.58597701 -109.36642099 26.74941386 -107.16235352 25.87768555 C-99.27644749 22.76088927 -91.3540818 20.21010721 -83.1875 17.9375 C-81.95410889 17.59025879 -80.72071777 17.24301758 -79.44995117 16.88525391 C-71.40223622 14.6331443 -63.346706 12.46155131 -55.21533203 10.53027344 C-52.53514385 9.88872961 -49.85958586 9.22913687 -47.18359375 8.5703125 C-37.13353457 6.10838007 -27.07241992 3.7141991 -16.9375 1.625 C-16.14762695 1.45742188 -15.35775391 1.28984375 -14.54394531 1.1171875 C-13.7959668 0.96765625 -13.04798828 0.818125 -12.27734375 0.6640625 C-11.32202759 0.46997803 -11.32202759 0.46997803 -10.34741211 0.27197266 C-6.92001101 -0.12512821 -3.45032859 0 0 0 Z"
     id="path5" />
  <path
     transform="translate(1161,836)"
     fill="#051F34"
     d="M0 0 C9.19193138 7.30393348 15.83323947 15.33455811 21.25 25.6875 C21.5795166 26.29795166 21.9090332 26.90840332 22.24853516 27.53735352 C28.63730116 40.33285902 28.39660203 53.95853636 28.1875 67.875 C28.17241064 69.64191555 28.15872983 71.40884371 28.14648438 73.17578125 C28.11385054 77.45083963 28.06230911 81.72527541 28 86 C29.02915527 85.970271 30.05831055 85.94054199 31.11865234 85.90991211 C32.48273544 85.88586765 33.84683147 85.86254984 35.2109375 85.83984375 C35.88761475 85.8183728 36.56429199 85.79690186 37.26147461 85.77478027 C42.53743409 85.7089512 45.572756 86.6667452 49.41796875 90.21875 C55.00930199 96.51417705 57.08789003 100.94010561 57.17700195 109.5144043 C57.19625481 111.13846443 57.19625481 111.13846443 57.21589661 112.79533386 C57.22328354 113.95986588 57.23067047 115.12439789 57.23828125 116.32421875 C57.246353 117.53962845 57.25442474 118.75503815 57.26274109 120.00727844 C57.27656867 122.58532289 57.28729674 125.16338555 57.29516602 127.74145508 C57.30662001 130.34893244 57.32696549 132.9563876 57.35668945 135.5637207 C57.71813254 167.29600086 51.77144512 193.94237728 30 218 C29.12988281 218.96421875 28.25976562 219.9284375 27.36328125 220.921875 C12.40316735 236.92214978 -7.09555797 247.92489296 -27.16699219 256.22558594 C-28.40608266 256.74908021 -29.6360009 257.29474845 -30.85644531 257.86035156 C-37.93869668 261.10940596 -43.6762732 260.26125934 -50.890625 257.6796875 C-66.07379258 251.836043 -80.39662861 244.32729085 -93 234 C-93.79615723 233.36191406 -93.79615723 233.36191406 -94.60839844 232.7109375 C-116.31961988 215.29102493 -133.54844067 192.27359699 -137 164 C-137.66379077 154.4673318 -137.66402353 144.91674538 -137.63134766 135.36547852 C-137.61965174 131.65335893 -137.65396995 127.94320104 -137.700037 124.23140621 C-137.7296225 121.33576615 -137.73124287 118.44059667 -137.72501755 115.54483223 C-137.72652212 113.51921395 -137.75409203 111.49366777 -137.78237915 109.46824646 C-137.70163198 101.41418948 -136.6112306 95.98382334 -131 90 C-126.25268662 85.91204318 -121.98916859 84.87108421 -115.8125 84.9375 C-114.72582031 84.94652344 -113.63914062 84.95554687 -112.51953125 84.96484375 C-111.68808594 84.97644531 -110.85664062 84.98804688 -110 85 C-110.01047363 84.03288086 -110.02094727 83.06576172 -110.03173828 82.06933594 C-110.06839541 78.42386694 -110.09106377 74.77841364 -110.10986328 71.1328125 C-110.11981813 69.56572719 -110.1333869 67.99865993 -110.15087891 66.43164062 C-110.39432339 44.03474843 -106.1321737 24.22031638 -90.421875 7.26171875 C-65.02144347 -16.45900682 -28.8693227 -20.20403611 0 0 Z"
     id="path6" />
  <path
     transform="translate(1026,378)"
     fill="#C1C2C1"
     d="M0 0 C0.33 0 0.66 0 1 0 C1.33 20.79 1.66 41.58 2 63 C17.345 62.505 17.345 62.505 33 62 C38.85553326 61.90132024 44.70229515 61.81714256 50.55737305 61.79125977 C52.06955128 61.78164373 53.58172777 61.77175039 55.09390259 61.76161194 C59.89981777 61.73124652 64.70574572 61.71014599 69.51171875 61.69140625 C70.33966957 61.68810893 71.1676204 61.68481161 72.02066064 61.68141437 C79.86469078 61.65078882 87.70872648 61.62419356 95.55279827 61.60699558 C105.46476225 61.58496709 115.37619469 61.54249919 125.2879464 61.47355801 C132.33583104 61.42623171 139.38357194 61.40205486 146.43161041 61.3947987 C150.61246814 61.38987651 154.79271323 61.37511303 158.97339439 61.3350544 C162.88839464 61.29799472 166.80243569 61.28984035 170.71757889 61.30306053 C172.1429423 61.30300699 173.56835107 61.29287979 174.99355125 61.2713089 C188.37439363 61.07973642 197.60087479 65.06399085 207.24502563 74.26559448 C208.60873795 75.61912521 208.60873795 75.61912521 210 77 C211.13294336 78.10929145 212.26621537 79.21824731 213.39974976 80.32693481 C217.42048936 84.27760666 221.40413867 88.26483016 225.38671875 92.25390625 C226.85766796 93.72418027 228.32876545 95.19430595 229.80000305 96.66429138 C232.86674826 99.72957068 235.93169903 102.79662975 238.99536133 105.86499023 C242.90548347 109.7808191 246.8200926 113.69212674 250.73605633 117.60211277 C253.76889032 120.63131979 256.79932203 123.66292107 259.82905006 126.6952343 C261.27109385 128.13794092 262.71386907 129.57991686 264.15741539 131.02112007 C266.17859258 133.03973433 268.19649748 135.06156664 270.21362305 137.08422852 C270.79924515 137.66782639 271.38486725 138.25142426 271.98823547 138.85270691 C275.63423965 142.51710568 279.08058586 146.31110962 282.45098591 150.23068142 C284.52641693 152.6012852 286.74324519 154.80263347 289 157 C291.93118191 159.89591958 294.76403174 162.80242571 297.4375 165.9375 C300.25741905 169.24178161 303.27128628 172.2733573 306.375 175.3125 C316.82472355 185.6758622 324.41671715 193.9364387 324.51171875 209.0859375 C324.53864555 210.67131821 324.53864555 210.67131821 324.56611633 212.28872681 C324.62011938 215.6507778 324.65408362 219.0126876 324.6875 222.375 C324.72068183 224.66017585 324.75517229 226.9453331 324.79101562 229.23046875 C324.87584009 234.82018588 324.94423229 240.40992151 325 246 C323.77023437 246.33773437 322.54046875 246.67546875 321.2734375 247.0234375 C319.64060198 247.47387489 318.00779076 247.92440038 316.375 248.375 C315.56675781 248.59671875 314.75851562 248.8184375 313.92578125 249.046875 C310.46403411 250.00378071 307.05689015 250.9801484 303.6640625 252.1640625 C301 253 301 253 297 253 C297 361.57 297 470.14 297 582 C296.67 582 296.34 582 296 582 C296 459.24 296 336.48 296 210 C265.97 210 235.94 210 205 210 C188.97174645 201.98587322 187.4570191 199.78824966 181 183 C181 152.64 181 122.28 181 91 C96.85 91 12.7 91 -74 91 C-74 90.67 -74 90.34 -74 90 C-49.58 90 -25.16 90 0 90 C0 60.3 0 30.6 0 0 Z"
     id="path7" />
  <path
     transform="translate(1424,601)"
     fill="#B5B6B7"
     d="M0 0 C0.28401106 32.30953568 -0.75646388 63.58879343 -5.1436615 95.64930725 C-5.86184546 100.91701609 -6.53445886 106.189665 -7.1953125 111.46484375 C-10.41662608 137.04691051 -14.71325543 162.14449084 -20.6640625 187.25 C-21.72170623 191.73591827 -22.65551476 196.21958505 -23.5 200.75 C-32.84861796 248.12689439 -52.67422926 294.4797611 -73 338 C-73.33 338 -73.66 338 -74 338 C-74.04573621 297.90491099 -74.08099822 257.80982538 -74.10213066 217.71471552 C-74.1046322 212.98559155 -74.10722083 208.25646764 -74.10986328 203.52734375 C-74.1103879 202.58582472 -74.11091252 201.64430569 -74.11145304 200.67425577 C-74.12016553 185.41136323 -74.13594013 170.1484857 -74.15430559 154.88560207 C-74.1729812 139.23492161 -74.18411176 123.58424902 -74.18817699 107.93355787 C-74.19092692 98.26927645 -74.19962522 88.60503743 -74.21583293 78.94076906 C-74.22637098 72.32168079 -74.22960788 65.70261458 -74.22700275 59.08351852 C-74.22571648 55.25953847 -74.22774548 51.43563271 -74.23841095 47.61166573 C-74.24986738 43.47410358 -74.24599843 39.33670146 -74.24050903 35.1991272 C-74.24633472 33.97930417 -74.2521604 32.75948114 -74.25816262 31.50269377 C-74.25418052 30.40144207 -74.25019842 29.30019037 -74.24609566 28.1655674 C-74.2468551 27.20943161 -74.24761454 26.25329581 -74.24839699 25.26818621 C-74 23 -74 23 -72 21 C-70.16259766 20.22558594 -70.16259766 20.22558594 -67.9140625 19.484375 C-66.65698486 19.0665979 -66.65698486 19.0665979 -65.37451172 18.64038086 C-64.46717285 18.34655518 -63.55983398 18.05272949 -62.625 17.75 C-61.68543457 17.4413501 -60.74586914 17.1327002 -59.77783203 16.81469727 C-52.68736711 14.50320807 -45.5613934 12.32234828 -38.40966797 10.20898438 C-31.72339626 8.23238097 -25.07525941 6.1480036 -18.44091797 4.00366211 C-5.94174763 0 -5.94174763 0 0 0 Z"
     id="path8" />
  <path
     transform="translate(1350,624)"
     fill="#A0A1A3"
     d="M0 0 C0.36739387 39.87289475 0.64874424 79.74556628 0.81704527 119.6198198 C0.83705308 124.34290346 0.85776258 129.0659838 0.87890625 133.7890625 C0.88310322 134.72921807 0.88730018 135.66937364 0.89162433 136.63801877 C0.96096996 151.79844496 1.08696597 166.95788591 1.23444474 182.11773045 C1.38484592 197.70972484 1.47310231 213.30120852 1.50541592 228.89389837 C1.52721248 238.49173415 1.59566193 248.08678418 1.72666347 257.68376075 C1.81220592 264.29306704 1.83658993 270.90096477 1.81602204 277.5107825 C1.80591641 281.30769871 1.81972566 285.0998039 1.9072876 288.89583015 C2.42089587 312.32832582 -3.79054836 327.4846706 -16 347 C-17.51019443 349.57022091 -18.99522417 352.15301919 -20.47281551 354.74205363 C-24.93154561 362.51241594 -24.93154561 362.51241594 -28.5218811 364.15084839 C-33.0324436 365.25206187 -37.23551305 365.26345863 -41.86083984 365.22705078 C-42.83707306 365.22734283 -43.81330627 365.22763489 -44.81912231 365.22793579 C-48.03315237 365.22654687 -51.24694814 365.21100612 -54.4609375 365.1953125 C-56.69438551 365.19158082 -58.92783516 365.18873458 -61.1612854 365.18673706 C-67.03029933 365.17911284 -72.89921377 365.15947467 -78.76818848 365.1373291 C-84.76080988 365.11684463 -90.75344741 365.10772978 -96.74609375 365.09765625 C-108.49744651 365.07622769 -120.2486994 365.04105534 -132 365 C-132 355.43 -132 345.86 -132 336 C-97.35 336 -62.7 336 -27 336 C-27 227.43 -27 118.86 -27 7 C-2.5 0 -2.5 0 0 0 Z"
     id="path9" />
  <path
     transform="translate(992,708)"
     fill="#B5B7B8"
     d="M0 0 C95.37 0 190.74 0 289 0 C289 8.58 289 17.16 289 26 C193.63 26 98.26 26 0 26 C0 17.42 0 8.84 0 0 Z"
     id="path11" />
  <path
     transform="translate(950,777)"
     fill="#A0A1A3"
     d="M0 0 C0 60.39 0 120.78 0 183 C24.09 183 48.18 183 73 183 C73 175.41 73 167.82 73 160 C73.33 160 73.66 160 74 160 C74 176.83 74 193.66 74 211 C70.17179968 211.95705008 67.17190694 212.13899475 63.24707031 212.16113281 C62.57658661 212.16609772 61.90610291 212.17106262 61.21530151 212.17617798 C59.00289878 212.19075052 56.7905678 212.19759413 54.578125 212.203125 C53.03358968 212.20888144 51.48905436 212.21463911 49.94451904 212.22039795 C46.70649891 212.23089465 43.4685035 212.2367457 40.23046875 212.24023438 C36.09696846 212.24570975 31.96379912 212.26972268 27.83040237 212.29820633 C24.6389269 212.3169039 21.44752993 212.32204213 18.25600433 212.32357025 C16.73308253 212.32658236 15.21016163 212.3345618 13.68729401 212.34775543 C1.09976742 212.44900677 -7.6245304 210.97614404 -17 202 C-25.79630496 191.34882204 -26.43140569 181.23748691 -26.34057617 168.02734375 C-26.33972914 166.30204788 -26.34020653 164.57675093 -26.34190369 162.85145569 C-26.34276209 158.18462733 -26.32516147 153.51803174 -26.30418181 148.85125732 C-26.28538913 143.96790761 -26.28366253 139.08455217 -26.28010559 134.20117188 C-26.27079274 124.96136114 -26.24618923 115.72165728 -26.21605712 106.48189354 C-26.18248947 95.95955328 -26.16602115 85.43720784 -26.15097082 74.91482735 C-26.11963901 53.27649198 -26.06689328 31.63825273 -26 10 C-22.23306487 8.32442019 -18.46084826 6.66108133 -14.6875 5 C-13.61564453 4.52304687 -12.54378906 4.04609375 -11.43945312 3.5546875 C-9.89741211 2.87792969 -9.89741211 2.87792969 -8.32421875 2.1875 C-7.37635498 1.76855469 -6.42849121 1.34960938 -5.4519043 0.91796875 C-3 0 -3 0 0 0 Z"
     id="path12" />
  <path
     transform="translate(993,650)"
     fill="#C9C9C9"
     d="M0 0 C94.71 0 189.42 0 287 0 C287 7.92 287 15.84 287 24 C192.29 24 97.58 24 0 24 C0 16.08 0 8.16 0 0 Z"
     id="path13" />
  <path
     transform="translate(950,551)"
     fill="#BDBEBD"
     d="M0 0 C0 74.58 0 149.16 0 226 C-24 236 -24 236 -26 236 C-26.85042349 230.8637928 -27.13667587 225.88911982 -27.10534668 220.68045044 C-27.10454259 219.87915231 -27.1037385 219.07785417 -27.10291004 218.25227427 C-27.09893269 215.6084133 -27.0876389 212.96463905 -27.07617188 210.32080078 C-27.07160353 208.43834074 -27.06741738 206.55587974 -27.063591 204.67341805 C-27.04969889 198.78224335 -27.02529046 192.89113489 -27 187 C-26.99281655 185.17188291 -26.98570416 183.34376555 -26.97866821 181.51564789 C-26.93173986 169.60649684 -26.86726268 157.69747051 -26.79807091 145.78843069 C-26.76918454 140.77181054 -26.74167194 135.75518282 -26.71398926 130.73855591 C-26.66179618 121.31576035 -26.60843757 111.89297179 -26.5546174 102.4701854 C-26.49321867 91.71005009 -26.43318445 80.94990729 -26.37324238 70.18976378 C-26.25030405 48.12650077 -26.12572517 26.0632473 -26 4 C-24.12577848 3.51779737 -22.25058246 3.03938167 -20.375 2.5625 C-18.80878906 2.16224609 -18.80878906 2.16224609 -17.2109375 1.75390625 C-11.1665201 0.33471822 -6.36187455 0 0 0 Z"
     id="path14" />
  <path
     transform="translate(993,768)"
     fill="#BABBBD"
     d="M0 0 C69.63 0 139.26 0 211 0 C211 8.25 211 16.5 211 25 C141.37 25 71.74 25 0 25 C0 16.75 0 8.5 0 0 Z"
     id="path15" />
  <path
     transform="translate(1222,476)"
     fill="#FDFDFC"
     d="M0 0 C4.09065483 3.3679194 7.54418586 6.63107908 10.8984375 10.7421875 C12.73724472 12.71770901 14.59789937 14.41098346 16.64428711 16.16213989 C20.86487856 19.83533235 24.843759 23.70247808 28.79296875 27.66357422 C29.52565475 28.3945079 30.25834076 29.12544159 31.01322937 29.87852478 C33.40715545 32.26808894 35.79745217 34.6612448 38.1875 37.0546875 C39.85743855 38.7239519 41.52752549 40.39306787 43.19775391 42.06204224 C46.68245374 45.54527322 50.16535163 49.03029327 53.64697266 52.51660156 C58.1205743 56.99593112 62.59869201 61.47071482 67.07814026 65.9441967 C70.5198691 69.38232438 73.95922801 72.82281483 77.39785767 76.2640419 C79.04943338 77.91628652 80.70175726 79.56778361 82.35482788 81.21853256 C84.6530347 83.51421684 86.94804071 85.81305239 89.2421875 88.11279297 C89.93092453 88.79950577 90.61966156 89.48621857 91.32926941 90.19374084 C91.94876968 90.81606094 92.56826996 91.43838104 93.20654297 92.07955933 C94.02057083 92.89415273 94.02057083 92.89415273 94.8510437 93.72520256 C96 95 96 95 96 96 C85.42946535 96.06960079 74.85898548 96.12286248 64.28826809 96.15543652 C59.37951483 96.17107275 54.4709187 96.19227373 49.56225586 96.22631836 C44.82251001 96.25898462 40.08291502 96.27686838 35.34306526 96.28463173 C33.53741139 96.2901622 31.73176549 96.30096187 29.92617607 96.31719017 C27.39127829 96.33906119 24.85699888 96.34196291 22.32202148 96.34057617 C21.20963104 96.35675491 21.20963104 96.35675491 20.07476807 96.3732605 C14.91181978 96.34282529 11.50187869 95.34452282 7 93 C1.6532284 87.50872106 0.70239262 82.26767709 0.68115234 74.81323242 C0.67110672 74.00295593 0.6610611 73.19267944 0.65071106 72.35784912 C0.61992007 69.69039594 0.60285534 67.02304296 0.5859375 64.35546875 C0.56722256 62.50172567 0.5476489 60.64799108 0.5272522 58.79426575 C0.47595942 53.9232382 0.43631839 49.05218305 0.39910889 44.18103027 C0.35905138 39.20720607 0.30796699 34.23349645 0.2578125 29.25976562 C0.16108699 19.50659094 0.07667136 9.75335151 0 0 Z"
     id="path16" />
  <path
     transform="translate(1143.8125,861.1875)"
     fill="#FAFCFC"
     d="M0 0 C4.40479587 3.67197652 7.36123904 7.85972758 10.1875 12.8125 C10.785625 13.84375 11.38375 14.875 12 15.9375 C17.1041722 28.29496953 14.1875 50.94536813 14.1875 59.8125 C-10.8925 59.8125 -35.9725 59.8125 -61.8125 59.8125 C-61.8125 15.1681582 -61.8125 15.1681582 -49.12109375 2.06640625 C-35.61639993 -10.49828568 -14.65227172 -10.50079473 0 0 Z"
     id="path17" />
  <path
     transform="translate(992,708)"
     fill="#CDCDCD"
     d="M0 0 C95.37 0 190.74 0 289 0 C289 8.58 289 17.16 289 26 C193.63 26 98.26 26 0 26 C0 17.42 0 8.84 0 0 Z M134 1 C134 1.66 134 2.32 134 3 C133.38543945 3.16145508 132.77087891 3.32291016 132.13769531 3.48925781 C125.87208091 5.23674508 120.42975045 7.60877218 114.75 10.75 C113.10231617 11.64201855 111.45387079 12.53263174 109.8046875 13.421875 C108.99870117 13.85822266 108.19271484 14.29457031 107.36230469 14.74414062 C102.80352411 17.1677007 98.14540232 19.38973745 93.4921875 21.625 C90.88584476 22.75572571 90.88584476 22.75572571 90 25 C155.34 25 220.68 25 288 25 C288 17.08 288 9.16 288 1 C237.18 1 186.36 1 134 1 Z"
     id="path18" />
  <path
     transform="translate(1135.75,966.625)"
     fill="#F9FBFB"
     d="M0 0 C5.08474848 5.36723451 7.55507095 11.1644786 7.75 18.5625 C7.41339989 25.85550243 5.33147404 30.96568892 0.25 36.375 C-0.41 36.375 -1.07 36.375 -1.75 36.375 C-1.72905273 37.03508057 -1.70810547 37.69516113 -1.68652344 38.37524414 C-1.60284607 41.39583818 -1.55117771 44.41618759 -1.5 47.4375 C-1.44972656 48.99500977 -1.44972656 48.99500977 -1.3984375 50.58398438 C-1.315579 57.10909143 -1.79577604 61.10270139 -5.75 66.375 C-10.44661775 69.68398069 -14.19699067 69.90385803 -19.75 69.375 C-23.87305791 67.78200035 -25.78561403 65.38538966 -27.91601562 61.54858398 C-29.84183354 56.52939286 -29.17736336 50.85112372 -29.0625 45.55664062 C-29.11494462 39.21521255 -30.17712293 35.90782228 -34.30493164 31.07495117 C-38.42520744 26.22793641 -38.23782143 20.74467438 -38.12109375 14.66796875 C-37.4518936 8.72969794 -35.15309633 4.62305786 -30.8125 0.5625 C-20.02096884 -7.93991849 -11.301892 -6.67839073 0 0 Z"
     id="path19" />
  <path
     transform="translate(1109,964)"
     fill="#D6E3E9"
     d="M0 0 C0.66 0.33 1.32 0.66 2 1 C0.02 2.98 -1.96 4.96 -4 7 C-4.99 6.67 -5.98 6.34 -7 6 C-4.69 4.02 -2.38 2.04 0 0 Z"
     id="path43" />
</svg>
